<?xml version="1.0" encoding="utf-8"?>
<!-- Generator: Adobe Illustrator 25.0.0, SVG Export Plug-In . SVG Version: 6.00 Build 0)  -->
<svg version="1.1" id="Capa_1" xmlns="http://www.w3.org/2000/svg" xmlns:xlink="http://www.w3.org/1999/xlink" x="0px" y="0px"
	 viewBox="0 0 300 300" style="enable-background:new 0 0 300 300;" xml:space="preserve">
<style type="text/css">
	.st0{display:none;fill:#652571;}
	.st1{display:none;fill:#FFFFFF;}
	.st2{display:none;fill-rule:evenodd;clip-rule:evenodd;fill:#FFFFFF;}
	.st3{display:none;fill-rule:evenodd;clip-rule:evenodd;fill:#020203;}
	.st4{display:none;}
	.st5{display:inline;fill:#FFFFFF;}
	.st6{fill:#010101;}
</style>
<rect class="st0" width="300" height="300"/>
<path class="st1" d="M150,5C69.9,5,5,69.9,5,150s64.9,145,145,145s145-64.9,145-145S230.1,5,150,5z M15.7,150
	c0-15.6,2.6-30.7,7.8-45.2l13.9,9.7v108.8c-4.3-6.6-8.1-13.7-11.2-21C19.2,185.7,15.7,168.1,15.7,150z M245,245
	c-12.3,12.3-26.7,22-42.7,28.8c-16.6,7-34.1,10.6-52.3,10.6c-18.1,0-35.7-3.5-52.3-10.6C81.7,267,67.4,257.3,55,245
	c-3.9-3.9-7.5-8-10.9-12.3h74.2l29.2-21.2V96.4l-29.2-21.8H38.8C43.5,67.6,49,61.1,55,55c12.3-12.3,26.7-22,42.7-28.8
	c16.6-7,34.1-10.6,52.3-10.6c18.1,0,35.7,3.5,52.3,10.6c16,6.8,30.4,16.5,42.7,28.8c6.1,6.1,11.5,12.6,16.2,19.6H240l-4.8,10.5
	L221,74.6h-33l-29,21.8v115.2l28.9,21.2h67.9C252.5,237,248.9,241.1,245,245z M67.1,110.8h26.5c7.4,0,13.4,6,13.4,13.4v59.5
	c0,7.4-6,13.4-13.4,13.4H77.7v-78.7L67.1,110.8z M266.1,217.6v-41h-37.6v20.7h-16.2c-7.1,0-12.9-5.8-12.9-12.9v-65.9l-10.6-7.7h39.7
	v22.6H263l6.9-44.1c1.4,2.8,2.7,5.6,3.9,8.5c7,16.6,10.6,34.1,10.6,52.3c0,18.1-3.6,35.7-10.6,52.3
	C271.5,207.6,269,212.7,266.1,217.6z"/>
<path class="st2" d="M235.8,173.1c12.6,0,23.3-10.4,23.3-23.5c0-13-10.7-23.3-23.3-23.3c-13,0-23.5,10.3-23.5,23.3
	C212.4,162.7,222.8,173.1,235.8,173.1 M206.1,149.7c0-16.4,13.3-29.7,29.7-29.7s29.7,13.3,29.7,29.7c0,16.5-13.3,29.9-29.7,29.9
	C219.4,179.5,206.1,166.2,206.1,149.7 M164.4,149.7c3.8-0.3,9.9-4.6,12.2-7.2c-0.9,3.1-0.9,13,0,16.2
	C174.1,154.9,168.2,150.3,164.4,149.7 M143,118.3c4.7,0,8.5,4.6,8.5,9.8c0,5.2-3.8,9.8-8.5,9.8h-16.2v-19.6L143,118.3z M143,162.2
	c4.7,0,8.5,4.6,8.5,9.8c0,5.5-3.8,10-8.5,10h-16.2v-19.8H143z M235.8,209.8c32.6,0,59.2-27.1,59.2-60.1c0-33.5-26.6-59.4-59.2-59.4
	c-33,0-49.7,24-53.7,33.8c0-14.5-14.5-31.8-31.3-31.8H96.5v117h50.6c20.6,0,35.1-17.6,35.1-33C186.7,185.8,202.9,209.8,235.8,209.8
	 M90,209.2H58.2v-45.4H37.6v45.4H5v-117h32.6v43.7h20.6V92.2H90V209.2z"/>
<path class="st3" d="M74.2,169.3l6.8-2.2l-5.7-5.4l-2.3,6.9L74.2,169.3L74.2,169.3z M268.7,177.8h-3.5l-6.2-6h-1.7v3.4l3.8,3.9v5.5
	l4.1,4.4v-6c0,0,3.5,0.7,3.5-3.4L268.7,177.8L268.7,177.8L268.7,177.8z M194,144h-5.1l-4.7-4.8v10.4l6.4,6.6v-5.3
	c0,0,3.5,0.9,3.5-3.2L194,144L194,144z M240.2,117.9c-3.5,0-4.6,1.5-4.9,3.5l0.2,22.6h4.7V117.9L240.2,117.9z M136.7,128.7
	c-0.5,1.3-0.2,3.2,1.1,5.5l2.1,0.1c0,0,1.7,0.9,0.5-2.2C140.5,132.1,138.1,129.9,136.7,128.7L136.7,128.7z M165,128.2h-3.8
	c0,0-8.7-8.7-8.7-8.1v3.8l1.8,1c2.4,1.6,4,2.8,5.6,5.2c0,0,3.9,3.8,5,4.8L165,128.2L165,128.2z M104.3,132h-3.4l-9.3-8v11.3h7.9
	l3.7,4.3L104.3,132L104.3,132z M57.9,117.9c-1.8,0.1-3.1,1.5-3.5,3.5l0.2,42.6c1.1,1.1,2.2,0.2,3.2-1.1L57.9,117.9L57.9,117.9z
	 M34.1,118.2l-0.6-0.1c-1.6-0.3-2.5,0.9-2.8,2.5v47.8c1.2,0.7,1.8-0.7,1.8-5.8l1.5-1.8C34.1,146.1,34.1,126.9,34.1,118.2L34.1,118.2
	z M134.4,107.3c1.8-3,5-4.5,7.3-5.1c4-1.1,8.1-0.7,10.6,1.5v-0.6h79.2l5.2,6.1v-6.1h17.6l10,10l2.3-10H287l8,8v5.8h-0.7
	c-2.4,0.1-3.2,1.4-3.2,2.5v68l3.7,3v6.7h-21.7l-4-3.8l-1.6,2.1l-11.7-0.1c0,0-1.9,2.5-3.5,2.4c-1.5,0-3.2-2.1-3.2-2.1l-50.2-0.1
	c0,0-4.5,2.9-7.7,3c-3.5,0.1-8.4-3-8.4-3l-0.1,2.8H167l-3.8-3c0,0-3,3-5.5,3.2c-2.8,0.2-6.4-3.2-6.4-3.2l-0.4,3.1l-14.9-0.1
	l-3.4-3.1c0,0-4.9,3.4-8.3,3.2c-3-0.2-7-3.1-7-3.1s-39.1,0-49.6,0c0,0-1.6,3.9-4.4,2.6c-4-2-7.9-7-8.6-7.2c-0.6-0.1-7,3.7-7,3.7v2.5
	H13l-8-8v-5.4l0.5-0.1c0.3-0.1,2.8-0.8,2.8-2.1v-68.5L5,108.6v-5.5h21.3l4,3.9v-3.9h21.1l2.8,3.3v-3.3h16.5l2.7,3.2
	c2.6-2.6,6.5-4.5,10.3-4.5c3.4,0,5.3,0.6,6.5,1.6v-0.3h10l4.1,4.8v-4.8h26.2L134.4,107.3L134.4,107.3z"/>
<path class="st2" d="M206.5,172.3c0.5-1,1.9-0.4,1.8,0.6c-0.1,0.5-0.5,0.8-0.8,0.8c-10.3,0-14.4,0-15.7,0c-1.9-2.3-4.7-3.6-7.7-3.6
	c-5.5,0-10,4.5-10,10s4.5,10,10,10c2.9,0,5.7-1.3,7.6-3.5h53c0.4,0,0.8,0.4,0.8,1c0,1-0.9,1.2-1.6,0.8c-1.8-1-2,2.6,1.2,2
	c1.4-0.3,2.3-1.4,2.3-2.8c0-1.4-1-2.9-2.7-2.9h-53.4c-1.1,0-2.4,3.5-7.2,3.5c-4.5,0-8.1-3.6-8.1-8.1s3.6-8.1,8.1-8.1
	c4.8,0,6,3.6,7.2,3.6c0,0,3.2,0,16.1,0c3.4,0,3.5-5.5-0.1-5.6c-1.1,0-2,0.4-2.6,1.5C204.3,172.5,206,173.4,206.5,172.3L206.5,172.3z
	 M233.1,179.2H186c-0.5-1-1.8-1.5-2.8-0.9c-1,0.5-1.5,1.8-0.9,2.8c0.5,1,1.8,1.5,2.8,0.9c0.4-0.2,0.7-0.5,0.9-0.9h47.1
	C234.3,181,234.3,179.2,233.1,179.2z M93.9,172.3c-0.5-1-1.9-0.4-1.8,0.6c0.1,0.5,0.5,0.8,0.8,0.8c10.3,0,14.4,0,15.7,0
	c1.9-2.3,4.7-3.6,7.7-3.6c5.5,0,10,4.5,10,10s-4.5,10-10,10c-2.9,0-5.7-1.3-7.6-3.5h-53c-0.4,0-0.8,0.4-0.8,1c0,1,0.9,1.2,1.6,0.8
	c1.8-1,2,2.6-1.2,2c-1.4-0.3-2.3-1.4-2.3-2.8c0-1.4,1-2.9,2.7-2.9H109c1.1,0,2.4,3.5,7.2,3.5c4.5,0,8.1-3.6,8.1-8.1
	s-3.6-8.1-8.1-8.1c-4.8,0-6,3.6-7.2,3.6c0,0-3.2,0-16.1,0c-3.4,0-3.5-5.5,0.1-5.6c1.1,0,2,0.4,2.6,1.5
	C96.1,172.5,94.5,173.4,93.9,172.3L93.9,172.3z M67.3,179.2h47.1c0.5-1,1.8-1.5,2.8-0.9c1,0.5,1.5,1.8,0.9,2.8
	c-0.5,1-1.8,1.5-2.8,0.9c-0.4-0.2-0.7-0.5-0.9-0.9H67.3C66.1,181,66.1,179.2,67.3,179.2z M191.4,151.6v5.3c6.8,0.6,13.2,2,19.1,4.3
	v-6c-2.5-0.2-3.7-1.5-3.6-3.8v-40c0-2.1,0.9-3.3,2.6-3.6v-4h-17.4v5.2c1.4,0,2.3,1,2.7,3.1v36.2
	C194.4,150.8,193.2,151.9,191.4,151.6L191.4,151.6z M162,148v5.3l18.2,1v-4.5c-2.5-0.4-3.6-1.9-3.5-4.6v-13.7c3,0.1,4.6,1.4,4.8,3.7
	h6.2v-13.7h-6.5c0.5,2.6-1,3.8-4.4,3.7v-14.5c5.5-0.5,7.9,2.2,7.1,8h7.5v-15H162v5.2c2.5,0.6,3.7,1.8,3.7,3.7v31.8
	C164.9,146.8,163.7,148,162,148L162,148z M134.2,135.2v18.1h7v-1.8c10.1,6.1,19-1.3,19-6.9v-9c0-11.1-14.5-10.8-14.5-18.8V114
	c0-5.2,6.8-4.9,6.8,0.3v5.4h8v-15.8H153v1l-0.7-0.1c-2.2-2.3-6.2-3-10.3-1.8c-3.3,0.9-8.2,3.4-8.2,9.7v7.7c0,10,15.2,12.1,15.2,17
	v5.5c-3,4.6-8,2.6-7.9-2.6v-5.1L134.2,135.2L134.2,135.2z M71.5,110.4v45.4c0.6,3.4,5.9,7.5,9.9,7.4c12.9,0,16.2-3.6,18.2-10V136H91
	v16.3c-3.9,3.8-6.9,1.5-8.1-1.5v-38.3c2.4-4.5,5.6-4.5,8.1,0.1v10.7h8.6v-19.6H91v1.5c-0.9-1.6-2.4-2.8-7.2-2.8
	C78.5,102.5,73,106.3,71.5,110.4L71.5,110.4z M31.1,103.7h19.7v4.3c-2.6-0.4-4.6,1.5-5,4.1l0.2,46.6c0.5,4.7,2.1,7.3,4.9,8
	c2.8,0.6,5.3-0.5,7.7-3.4v-48c0-4.7-1.2-7.7-3.6-7.3v-4.3h15.1v4.3c-2.7-0.4-4,2-3.7,5.5v49.8c-3.6,10.3-11.5,14.5-22.5,12.7
	c0,0-1-0.4-1.7-1.5c0.2-2,0.7-8.7,0.5-10.2c-0.2-1.9-2.5-2.6-2.5-2.6s-3.2-1-5.4,0.2v-0.2c0-19.2,0-48.9,0-48.9
	c0-1.9-1.2-4.1-3.7-4.6L31.1,103.7L31.1,103.7z M5.7,184v4.2h32.7c0,0,0.7-3,1.1-8c1-12.9,2.4-17.3,0.6-18.3c-2.7-1.5-7.2-1-7.5,4.2
	c-0.8,15.8-3.6,15.7-10.5,15.9L22,111.2c0.2-1.8,1.4-3.5,3.6-3.1v-4.4h-20v4.3c2.9,0.5,4,4.1,3.3,9v64.3C9,183.2,5.7,184,5.7,184
	L5.7,184z M211.7,156v5.4c14.2,3.3,26.7,8.2,37.5,14.6c0,0,2.2,1.8,3.2,0.5v-5.4c-2.5,0-3.5-2.2-3.5-5.1v-38.4l8.4,41.2
	c0.6,3.4,2.7,2.6,3.2,0.1l8.7-41.1l-0.1,50.2c0,4.5-0.6,5.5-3.2,6v4.5h20.3v-5.3c-1.6,0-3.7-0.3-3.7-3.7v-68c0-1.6,1.2-3,3.8-3.2
	v-4.5H267l-7,31.4l-6.4-31.4h-16.4v4.7c2-0.1,3.2,1.4,3.7,3.1v33.6h-5.3c-0.7,7.7-2.3,12.2-5.1,13.5h-2.8v-46c0-2.9,0.6-4.1,2.9-4.3
	v-4.6h-19.1v4.7c2.5-0.5,3.7,1.6,3.7,5v37.6C215.3,157.9,211.7,156,211.7,156L211.7,156z M239.9,159.5c0.5-2.6,1.1-6.6,1.1-6.6
	l-0.1,9.3c0,3.2-2,2.3-2,2.3S239.5,161.5,239.9,159.5L239.9,159.5z M99.4,153.6v5.4l12.8-3v-5.2c0,0-2.7,0.4-2.4-1.5
	c0.4-3.3,1.6-9.3,1.6-9.3h7c0,0,0.3,2.7,0.9,6.6c0.3,2.4-0.6,3.5-2.6,3.3v5.3l17-1.9l-0.3-5.9c-2.5,0-2.7-3.4-3.2-6
	c-1.5-8.9-3.2-17.7-4.5-29.1c-0.4-3.9,1.2-4.1,4.1-4.3v-4.3H105v5.2c1.9-0.3,2.5,0.6,3,2.7l-5.5,37.1
	C102.1,151.5,101.6,153.3,99.4,153.6L99.4,153.6z M114.8,117.5L117,132h-4.4L114.8,117.5L114.8,117.5z M43.2,183.4
	c71.8-39.1,148.7-35.7,217.1,1.7c2.1,1.2,0.4,4.4-1.8,3.2c-67.4-36.9-143-40.2-213.6-1.7C42.8,187.8,41.1,184.5,43.2,183.4
	L43.2,183.4z M155.4,175.3c0,0,0.1,6.4,0.1,9.9c0,1.9,0.9,3.8,2.8,4.1c5.9,0.8,4.5-1.4,5.9-1.3c1.8,0.1-1.6,1.7,8.4,1.7
	c2.7-3.7-2.3-1.3-2.3-6V166c0,0,0.1-3.1-0.5-3.2c-2.2-0.3-7.8-0.9-8.3,0.5c-0.2,2,3.4,2.4,3.4,4.5v3.6
	C162.5,168.5,155.4,168.9,155.4,175.3L155.4,175.3z M161.1,174.3c0-1.4,3.6-1.6,3.6-0.2v9.9c0,1.4-3.6,2.3-3.6,0.9V174.3z
	 M140.9,170.2v3h3.8c0,10.2-1.1,16.3,3.5,16.3c3.8,0,5,0.1,6.5-1.1v-2.7c-2.3,1.1-4.6,1.4-4.6-2.4v-10.1h3.8v-3h-3.8
	c0,0,0-2.2,0-4.4c0-2.3-5.5,0.6-5.5,0.6v3.8L140.9,170.2L140.9,170.2L140.9,170.2z M129,187.4c-0.7,0.5-1.1,2.2,0.8,2.2h13.1
	c0-3.4-0.2-5.6,0.7-8.9c0.5-2-3.8-1.4-3.8-0.7c0.2,4.7-1.8,8-2.9,6.1c-0.4-0.7-0.3-2.1-0.3-2.1v-17.3c0,0,0.4-0.8,1.4-1.9
	c0.4-0.5,0-2.2-0.5-2.1c-1.7,0.1-5.2,0.6-8.5,1c-0.8,0.1-0.7,1.8,0.1,1.9c1.2,0.2,1.5,2,1.5,2l-0.1,16.4
	C130.6,186.3,129.8,186.8,129,187.4L129,187.4z"/>
<path class="st3" d="M33.4,106.4c2.3,1.2,3.7,3.6,3.7,6.2v2.4v2.4v6v6v7.6v8v8v7.6c0,0.6-0.9,0.6-0.9,0V153v-8v-8v-7.6v-6v-6V115
	v-2.4c0-2.3-1.3-4.5-3.4-5.5c-0.1,0-0.3-0.3-0.3-0.4v-1.1c0-0.2,0.2-0.5,0.5-0.5h16c0.2,0,0.5,0.2,0.5,0.5v0.6
	c0,0.5-0.9,0.6-1.3,0.7c-2,0.8-3.4,2.8-3.7,4.9v0.3l0.2,46.6c0.5,4.9,2.6,10,8.4,9.4c2.7-0.3,4.9-2,6.6-4.1c0,0,0,0,0-0.1l0.1-0.2
	l0.1-0.2l0.1-0.2l0.1-0.2V163v-6v-42c0-2.6-0.3-7.3-3.3-8.5c-0.1,0-0.3-0.3-0.3-0.4v-0.8c0-0.2,0.2-0.5,0.5-0.5h11.5
	c0.2,0,0.5,0.2,0.5,0.5v0.7c0,0.5-0.9,0.6-1.3,0.8c-2.1,1.2-2.6,4.3-2.5,6.5v49.4v0.2c-3.5,9.6-10.8,13.1-20.6,11.5
	c-0.1,0-0.2-0.1-0.3-0.2l-0.1-0.1l-0.1-0.1l-0.2-0.1c-0.2-0.2-0.4-0.4-0.7-0.6c-0.5-0.5,0.2-1.1,0.9-0.4c0.1,0.1,0.1,0.1,0.2,0.2
	l0.2,0.1l0.1,0.1l0.1,0.1l0.1,0.1l0,0c9.3,1.5,16.1-1.8,19.5-10.8v-49.3c-0.2-3,0.7-7,4.1-7.8L68,106v-0.7l0.5,0.5H56.8l0.5-0.5v0.5
	c3.1,1.5,3.6,6.2,3.6,9.2v48c0,0.1,0,0.2-0.1,0.4l-0.1,0.2l-0.1,0.2l-0.1,0.2l-0.1,0.2c-0.6,1.3-3.4,3.4-4.7,4c-4.5,2-9,0-10.9-4.5
	c-0.7-1.6-1-3.4-1.2-5.1v-5.9l-0.2-35v-5.9v-0.1v-0.2v-0.1c0.5-2.8,2.5-5.4,5.4-6l-0.4,0.5v-0.6l0.5,0.5H33.4V106.4L33.4,106.4
	L33.4,106.4z M111.2,132.2c0,0.8,0.6,1.3,1.4,1.3h4.4c2,0,1.3-2.3,1.1-3.4c-0.3-1.7-1.8-12.7-2.1-13.4c-0.2-0.4-0.6-0.8-1.2-0.8
	c-1.5,0-1.5,2.4-1.6,3.3l-2,12.7C111.2,131.9,111.2,132.1,111.2,132.2L111.2,132.2z M110.3,132.2c0-1,0.4-3.1,0.6-4.1
	c0.3-1.7,1.5-10.9,2-11.8c0.4-0.8,1.1-1.3,2-1.3c2.2,0,2.3,2.5,2.5,4l1.9,12.7c0.2,1.4-0.8,2.6-2.3,2.6h-4.4
	C111.3,134.3,110.3,133.5,110.3,132.2z M248.4,174.3c-1.1-0.5-2.6-1.2-4-1.8l-4-1.8c-2.7-1.2-2.1-0.6-1.9-3.5c0-0.2,0-1,0.4-1.1
	c3.5-1.1,2.8-1.5,3-4.8l0.1-12.4l0.3-37.2l-0.1-0.4c-0.5-1.7-1.6-3.3-3.3-3.9c-0.1,0-0.3-0.3-0.3-0.4v-1.3c0-0.2,0.2-0.5,0.5-0.5
	h3.3h3.3h3.3h3.3c0.2,0,0.4,0.2,0.5,0.4l6.1,30c0.4,1.9,2.3,1.9,2.7,0l6.7-30c0-0.2,0.3-0.4,0.4-0.4h16c0.2,0,0.5,0.2,0.5,0.5v1.1
	c0,0.5-1.2,0.7-1.8,1.1c-1.3,0.8-2,2.1-2,3.6v68.1c0,2.4,0.9,4.3,3.4,4.9c0.2,0,0.4,0.3,0.4,0.4v1.8c0,0.3-0.2,0.5-0.5,0.5H268
	c-0.3,0-0.5-0.2-0.5-0.5v-1.2c0-0.6,1.8-0.6,2.6-2.8c0.5-1.4,0.5-3.2,0.5-4.6v-12.5v-12.5v-12.5v-12.5c0-2-2.3-2.2-2.7-0.3
	l-8.5,40.1c-0.1,0.6-0.8,0.6-0.9,0l-8.3-40.4c-0.4-1.9-2.7-1.7-2.7,0.3V166c0,2.4,0.8,5.3,3.2,6.2c0.1,0,0.3,0.3,0.3,0.4v2.1
	c0,0.4-0.7,0.4-0.7,0.4C250.3,175.2,249.6,174.8,248.4,174.3L248.4,174.3z M250.1,174.1V173c-2.7-1.2-3.5-4.3-3.5-7v-38.4
	c0-3.1,3.9-3.5,4.6-0.5l7.8,38.2l1.7-7.9l6.4-30.1c0.6-3,4.6-2.6,4.6,0.5v12.5v12.5v12.5v12.5c0,2.9-0.1,6.3-3.2,7.7v0.5h15.7v-1
	c-2.7-0.8-3.7-3-3.7-5.7v-68c0-2.4,1.6-4.3,3.8-5V106h-15.1l-1.6,7.1l-5,22.5c-0.6,2.8-3.9,2.8-4.5,0L252,106h-2.9h-3.3h-3.3h-2.8
	v0.5c1.9,0.8,3.1,2.5,3.6,4.4v0.1l0.1,0.5v0.1l-0.3,37.3l-0.1,12.4c-0.2,3.4,0.3,4.3-3.4,5.5l-0.2,2.4l1.5,0.7l4,1.8l4,1.8
	L250.1,174.1L250.1,174.1z M196.3,148.4v-0.2V112v-0.3c-0.3-1.5-1-3.1-2.4-3.8c-0.1,0-0.3-0.3-0.3-0.4v-1.9c0-0.2,0.2-0.5,0.5-0.5
	h13.7c0.2,0,0.5,0.2,0.5,0.5v0.9c0,0.4-1,0.9-1.3,1.2c-1,1-1.3,2.4-1.3,3.7v40c-0.1,2.3,1,4.2,3.3,4.9c0.1,0,0.3,0.3,0.3,0.4v1.8
	c0,0.4-0.3,0.5-0.6,0.4c-5-1.7-10.1-2.7-15.3-3.3c-0.2,0-0.4-0.2-0.4-0.5v-1.9c0-0.5,1-0.7,1.5-1C195.4,151.4,196,149.8,196.3,148.4
	L196.3,148.4L196.3,148.4z M208.2,157.9V157c-2.5-0.9-3.6-3.1-3.6-5.7v-40c0-2.1,0.7-4.1,2.6-5.2V106h-9.8h-3v1.2
	c1.6,0.9,2.3,2.7,2.7,4.4v0.1v0.2v0.1v36.2v0.1v0.2v0.1c-0.4,2-1.3,4.3-3.4,5.1v1.2C198.7,155.3,203.5,156.3,208.2,157.9
	L208.2,157.9z M167,144.8l0.1-0.4v-31.8c0-4-3.7-4.3-3.7-5.1v-2c0-0.2,0.2-0.5,0.5-0.5h25.8c0.2,0,0.5,0.2,0.5,0.5v11.3
	c0,0.3-0.2,0.5-0.5,0.5H186c-0.3,0-0.5-0.2-0.5-0.5c0-5.6-3.4-8-8.8-7.5c-0.6,0.1-1.3,0.7-1.3,1.4v14.5c0,2.3,4.3,1.2,5.3,0.6
	c2.1-1.1,1.6-3,2.4-3h2.8c0.2,0,0.5,0.2,0.5,0.5v10c0,0.3-0.2,0.5-0.5,0.5H183c-0.1,0-0.4-0.2-0.4-0.3c-0.9-2.4-3.3-3.3-5.8-3.4
	c-0.8,0-1.4,0.6-1.4,1.3l0,0v10.2v3.4c-0.1,2.5,0.7,4.7,3.2,5.6c0.1,0,0.3,0.3,0.3,0.4v1.1c0,1-2.8,0.3-4.1,0.3l-10.9-0.6
	c-0.2,0-0.4-0.2-0.4-0.5v-2.1c0-0.4,1.1-0.8,1.4-1.1c1.1-0.9,1.8-2.2,2.2-3.5L167,144.8L167,144.8z M177.9,151.8v-0.3
	c-2.6-1.2-3.6-3.6-3.5-6.4v-13.7c0-1.3,1.1-2.4,2.4-2.3c2.7,0.1,5.3,1.1,6.5,3.7h2.1v-9.1h-2c-0.8,3-4,3.8-6.7,3.7
	c-1.2,0-2.3-1.1-2.3-2.3v-14.5c0-1.1,1-2.2,2.1-2.3c5.7-0.5,9.6,2,9.8,8h2.8V106h-18.9h-6v1.2c2.3,1,3.7,2.8,3.7,5.4v31.8v0.1
	l-0.1,0.6v0.1c-0.6,1.9-1.7,3.8-3.6,4.6v1.3l3.2,0.2L177.9,151.8L177.9,151.8z M138.6,151.9h-0.8H137h-1c-0.3,0-0.5-0.2-0.5-0.5V137
	c0-0.7,1.6-0.5,2-0.5s2-0.3,2,0.4v3.2c-0.1,6.5,6.6,9.1,10.4,3.3l0.2-0.8v-5.5c0-3.5-5.6-6.1-8.2-7.8c-3.4-2.1-7-4.9-7-9.3v-7.7
	c0-5.6,4.9-8.5,10-8.9c2.1-0.1,4.6,0.3,6.2,1.9c0.4,0.5,1.9,0.7,2.4,0.4c0.4-0.2,0.7-0.8,1-0.8h4c0.2,0,0.5,0.2,0.5,0.5v12.2
	c0,0.3-0.2,0.5-0.5,0.5h-4.3c-0.3,0-0.5-0.2-0.5-0.5v-3.5c0-3.5-3-6.5-6.5-5.2c-2,0.8-3,2.8-3,4.8v2.8c0,4.3,3.3,6.5,6.5,8.5
	l0.7,0.4l0.7,0.4c3.7,2.3,6.6,4.7,6.6,9.4v9c0,2.8-2.6,5.5-4.9,6.7c-3.9,2.1-8.2,1.3-11.9-0.9c-1.2-0.7-2.1-0.2-2.1,1.2
	c0,0.2-0.2,0.4-0.5,0.5L138.6,151.9L138.6,151.9z M138.6,151h0.4c0.3-1.9,1.9-2.4,3.5-1.5c3.4,2.1,7.4,2.8,11,0.9
	c2-1,4.4-3.4,4.4-5.9v-9c0-4.4-2.8-6.5-6.2-8.6l-0.7-0.4l-0.7-0.4c-3.5-2.2-6.9-4.7-6.9-9.3V114c0-8.3,11.4-7.9,11.4,0.3v3.1h3.4
	V106h-3.3c-0.9,1.4-2.8,1.1-4,0.3c-0.6-0.3-1-0.8-1.6-1.1c-3.9-1.9-10.8,0.2-12.6,4.3c-0.4,0.8-0.6,1.9-0.6,3v7.7
	c0,8.7,15.2,10,15.2,17v5.5c0,1.9-2.8,4-4.1,4.5c-4.8,1.8-8.4-2.6-8.4-7.1v-2.7h-2.2V151h1.2H138.6L138.6,151z M94.1,105.1h3.7
	c0.2,0,0.5,0.2,0.5,0.5v16c0,0.3-0.2,0.5-0.5,0.5h-5c-0.3,0-0.5-0.2-0.5-0.5v-8.9c0,0,0,0,0-0.1l-0.1-0.3l-0.1-0.3
	c-0.3-0.9-1.8-2.6-2.6-3.2c-3.3-2.6-6.3,0-8,3c0,0,0,0,0,0.1l-0.1,0.3l-0.1,0.3l0,0v38.3l0.1,0.3v0.2c1.1,2.8,3.7,5.2,6.9,4.3
	c1.1-0.3,2.3-1,3.5-2.2c0.2-0.3,0.3-0.7,0.4-1v-3.6V138c0-0.2,0.2-0.5,0.5-0.5h4.8c0.2,0,0.5,0.2,0.5,0.5v15v0.1
	c-1.6,5-4,7.2-9.3,8.2c-2,0.4-4.5,0.6-7.5,0.6s-7.8-3.1-8.5-6.1v-0.1v-44.9c0-0.6,1.3-2.3,1.7-2.7c2.3-2.5,5.9-4.2,9.2-4.2
	c2.1,0,4.8,0.1,6,2.1c0.8,1.4,2.4,1.3,2.6-0.4c0-0.2,0.2-0.4,0.5-0.4L94.1,105.1L94.1,105.1L94.1,105.1z M94.1,106h-0.8
	c-0.5,2.4-3.1,2.4-4.2,0.4c-1-1.7-3.5-1.7-5.2-1.7c-3.7,0-8.5,2.6-10,6.1v44.7c0.6,2.6,5,5.4,7.6,5.4c4.7,0,11.5-0.2,14.4-4.7
	c0.6-1,1.1-2.1,1.5-3.4v-14.6h-3.9v14c0,0.3-0.4,1.4-0.7,1.6c-3.1,3.1-7,3.9-10.1,0.5c-0.6-0.7-1.6-2.1-1.8-3v-0.2v-0.2
	c0-0.1,0-0.1,0-0.2v-38.3c0,0,0-0.1,0-0.3l0.1-0.3l0.1-0.3c0.3-1.2,1.9-2.9,2.9-3.7c3.8-2.9,7.4,0.1,9.4,3.5c0,0,0.1,0.1,0.1,0.3
	l0.1,0.3l0.1,0.3c0,0.1,0,0.2,0,0.3v8.4h4v-15L94.1,106L94.1,106z M39.5,163.4L39.5,163.4c0.1,0.4,0.1,0.6,0.1,0.9
	c0,0.2,0,0.5,0,0.7v0.4v0.5v0.5c-0.1,0.8-0.2,1.6-0.3,2.4l-0.2,1.4l-0.2,1.6c-0.5,4.4-0.7,8.9-1.4,13.4l-0.1,0.6
	c-0.1,0.3-0.1,0.9-0.5,0.9H7.5c-0.3,0-0.5-0.2-0.5-0.5v-1c0-0.2,0.2-0.4,0.4-0.5l0.2-0.1l0.2-0.1l0.2-0.1c1.3-0.7,2.4-1.8,2.4-3.3
	V117v-0.1c0.4-3.2,0.3-8.3-3.1-10c-0.1-0.1-0.2-0.2-0.3-0.4v-1.1c0-0.2,0.2-0.5,0.5-0.5h16.3c0.2,0,0.5,0.2,0.5,0.5v0.8
	c0,0.4-1.2,0.8-1.6,1.1c-1.1,0.8-1.7,2.2-1.9,3.6v0.2v8.8v8.9v8.9v8.8v8.9v8.8v8.9v8.8c0,0.8,0.7,1.4,1.4,1.4
	c6.3-0.2,9.1-1,10.7-7.7c0.7-3.1,1-6.4,1.1-9.6C34.3,161.3,39.3,162.4,39.5,163.4L39.5,163.4z M23.4,106.1v-0.5l0.5,0.5H8v0.4
	c3.5,2,3.8,7.2,3.3,10.7v64.1c0,1.9-1.3,3.3-2.9,4.1l-0.2,0.1L8,185.6l-0.2,0.1l-0.2,0.1l0.3-0.4v0.5h28.5v-0.1l0.1-0.6
	c0.7-4.4,0.9-8.9,1.4-13.3l0.2-1.6l0.2-1.4c0.1-0.8,0.2-1.6,0.2-2.4V166v-0.4v-0.4c0-0.2,0-0.4,0-0.7c0-0.2,0-0.4,0-0.7v-0.2
	l0.3,0.3c-2.2-1-3.8,0-3.9,2.4c-0.2,4.7-0.6,13.9-5.2,16.7c-2.1,1.3-5,1.4-7.5,1.5c-1.3,0-2.4-1-2.4-2.3l0,0v-8.8v-8.8v-8.9v-8.9
	V138v-8.9v-8.9v-8.9v-0.1v-0.1V111C20.1,108.9,21.3,106.8,23.4,106.1L23.4,106.1z M213,159.5V158c0-0.2,0.2-0.4,0.4-0.5h0.2
	c2.7-0.7,3.2-4.1,3.2-6.5v-37.6c0-2.3-0.7-5.8-3.3-6.4c-0.2,0-0.4-0.3-0.4-0.4v-1c0-0.2,0.2-0.5,0.5-0.5H229c0.2,0,0.5,0.2,0.5,0.5
	v1.3c0,0.6-1.6,0.6-2.4,2.4c-0.5,1-0.5,2.3-0.5,3.4v46c0,0.7,0.7,1.4,1.4,1.4h2.8l0.3-0.1l0.3-0.1c4.2-2,5.4-9.4,5.8-13.4
	c0.1-0.6,1.6-0.5,2-0.5h0.5c1,0,0.6,2.6,0.6,3.1c-0.6,6.5-1.9,12.9-2.9,19.3c-0.1,0.4-0.4,0.5-0.7,0.3c0,0-0.6-0.3-1.7-0.8
	c-6.8-3.2-14.1-5.7-21.5-7.4c-0.2,0-0.4-0.3-0.4-0.4L213,159.5L213,159.5L213,159.5z M239.3,146.9l-1.4,0.1
	c-0.5,4.3-1.9,11.7-6.3,13.8c-0.1,0-0.1,0.1-0.2,0.1l-0.3,0.1l-0.3,0.1c-0.1,0-0.2,0-0.2,0h-2.8c-1.2,0-2.3-1.1-2.3-2.3v-46
	c0-2.4,0.4-5,2.9-6.1v-0.5H214v0.2c2.9,0.9,3.7,4.5,3.7,7.2v37.6c0,2.8-0.6,6.4-3.7,7.3v1.2c7.6,1.9,15.3,4.5,22.4,8
	c1-6.2,2.3-12.4,2.8-18.6C239.3,148.3,239.3,147.6,239.3,146.9L239.3,146.9z M110.8,154.5c0,0.2-0.2,0.4-0.4,0.4l-9.1,2.2
	c-0.3,0.1-0.6-0.1-0.6-0.4v-1.8c0-0.1,0.2-0.4,0.3-0.4c2.1-1,2.5-3.5,2.8-5.6l2.7-18.6l1.9-12.8l0.6-4.2l0.2-1.6
	c0.1-3.5-2.9-3.8-2.9-4.6v-1.6c0-0.2,0.2-0.5,0.5-0.5H128c0.2,0,0.5,0.2,0.5,0.5v0.8c0,0.2-0.2,0.4-0.4,0.5
	c-2.3,0.4-4.2,1.4-3.7,5.6c1.2,10.4,3,20.9,4.9,31.2c0.3,1.7,0.9,3.9,2.6,4.7c0.1,0.1,0.2,0.2,0.3,0.4c0,1,0.5,3.2-0.3,3.3
	l-13.3,1.5c-0.2,0-0.5-0.1-0.5-0.4V153v-1.6c0-0.1,0.2-0.4,0.3-0.4c1.7-0.6,2.6-2.3,2.2-4.7c-0.5-3.9-0.9-6.6-0.9-6.6
	c-0.1-0.6-0.8-1.2-1.4-1.2h-7c-0.5,0-1.3,0.6-1.4,1.1c0,0-1.2,6-1.6,9.4c-0.4,2.9,2.4,2.5,2.4,3.4L110.8,154.5L110.8,154.5z
	 M127.4,106h-20v0.8c1.8,0.7,2.9,3,2.9,4.9c0,0-0.1,0.6-0.2,1.7l-0.6,4.2l-1.9,12.8l-2.7,18.6c-0.3,2.3-0.9,4.9-3.1,6.2v0.9l8.2-2
	v-1.3c-1.2-0.4-2.7-1.5-2.4-3.9c0.4-3.4,1.6-9.4,1.6-9.4c0.2-0.9,1.3-1.9,2.3-1.9h7c1.1,0,2.2,1,2.3,2c0,0,0.3,2.7,0.9,6.6
	c0.3,2.5-0.4,4.7-2.6,5.6v0.8l12.3-1.4l-0.1-2.1c-2.5-1.4-2.8-4.8-3.2-7.3c-1.5-8.9-3.3-17.8-4.5-29.2
	C123,108.1,125,106.6,127.4,106L127.4,106z M259.9,186.9c-0.1,0.3-0.3,0.3-0.6,0.2c-67.8-37.1-143.9-40.4-214.9-1.7
	c-0.3,0.2-0.5,0.1-0.6-0.2s-0.1-0.5,0.2-0.6c71.4-38.9,147.8-35.5,215.8,1.7C260,186.5,260,186.7,259.9,186.9z"/>
<g class="st4">
	<path class="st5" d="M142.7,118.7C142.7,118.7,142.6,118.7,142.7,118.7l-0.1,31.3c1.4,0,2.8-0.3,4.2-1c4.1-2,7.6-7,7.6-14.9
		C154.4,119.1,144.1,118.7,142.7,118.7z"/>
	<polygon class="st5" points="95.3,168.3 105.2,168.3 100.2,126.6 	"/>
	<path class="st5" d="M5,92v116h290V92H5z M250.4,119h-15.9v22h15.9v17.8h-15.9v22.3h15.9v17.5H217v-88.3l-14.1,88.3l-20.6,0.1
		c0,0-10.5-62.5-10.5-62.7l0,0c1.7,10.1-4.7,20.7-10.3,24.8l11.2,37.8l0,0l0,0h-17.3l-8.5-32.2l-4.1,0.6v31.6l0,0l0,0l0,0h-33.5
		l-2.1-15h-14l-2.1,15H57v-46.9l-7.9,46.9h-9.4l-8.1-46.9v46.9H13.9v-97.4h22.5l7.9,50.3l8.1-50.3h22.5v89.6l13.5-89.6h23.5
		l13.1,86.5l0.1-86.5c0,0,17.8,0,17.9,0c16.2,0,23.5,11.8,25.6,15.8l-2-15.8h17.9l8.1,59.3l8.2-59.3h49.7V119H250.4z M286.1,198.7
		h-32.6v-97.4H271v79.9h15v17.5H286.1z"/>
</g>
<path class="st1" d="M16.8,170.9c-7.6,0-11.7-4.9-11.7-14.1L5,135.5c0-0.2,0.2-0.4,0.4-0.5l6.6-0.6c0.1,0,0.2,0,0.3,0.1
	s0.2,0.2,0.2,0.3l0.1,21c0,4.6,1.8,7,5.2,7c0.3,0,0.5,0,0.8-0.1c4-0.4,6.1-3.1,6.1-8.2l-0.1-21c0-0.2,0.2-0.4,0.4-0.5l6.7-0.7
	c0.1,0,0.3,0,0.4,0.1c0.1,0.1,0.1,0.2,0.1,0.3l0.1,21.3c0,5.7-1.7,15.5-13.6,16.6C18.1,170.9,17.4,170.9,16.8,170.9 M39.5,167.9
	c-0.1,0-0.2,0-0.3-0.1s-0.1-0.2-0.1-0.3l-0.2-35.1c0-0.2,0.2-0.4,0.4-0.5l7.1-0.5c0.2,0,0.3,0.1,0.4,0.2l15,19.8l-0.1-20.6
	c0-0.2,0.2-0.4,0.4-0.5l5.7-0.4c0.1,0,0.2,0,0.3,0.1c0.1,0.1,0.1,0.2,0.1,0.3l0.2,35.1c0,0.2-0.2,0.4-0.4,0.5l-5.9,0.4
	c-0.2,0-0.3-0.1-0.4-0.2l-16.2-21.5l0.1,22.4c0,0.2-0.2,0.4-0.4,0.4L39.5,167.9L39.5,167.9L39.5,167.9z M76.9,165.5
	c-0.1,0-0.2,0-0.3-0.1c-0.1-0.1-0.2-0.2-0.2-0.3l-0.2-35c0-0.2,0.2-0.5,0.4-0.5l7.6-0.4c0.1,0,0.2,0,0.3,0.1
	c0.1,0.1,0.1,0.2,0.1,0.3l0.2,35c0,0.2-0.2,0.4-0.4,0.5L76.9,165.5L76.9,165.5L76.9,165.5z M105,164.3c-0.2,0-0.3-0.1-0.4-0.3
	l-14.9-34.6c-0.1-0.1,0-0.3,0-0.4c0.1-0.1,0.2-0.2,0.4-0.2l8.7-0.3c0.2,0,0.4,0.1,0.4,0.3l9.7,22.6l10-23.2c0.1-0.2,0.2-0.3,0.4-0.3
	l6.9-0.2c0.2,0,0.3,0.1,0.4,0.2c0.1,0.1,0.1,0.3,0,0.4l-15.3,35.5c-0.1,0.2-0.2,0.3-0.4,0.3L105,164.3L105,164.3L105,164.3z
	 M132,163.6c-0.2,0-0.5-0.2-0.5-0.4l-0.2-35c0-0.1,0-0.2,0.1-0.3c0.1-0.1,0.2-0.1,0.3-0.1h28.1c0.2,0,0.5,0.2,0.5,0.4v6.8
	c0,0.1,0,0.2-0.1,0.3s-0.2,0.1-0.3,0.1h-19.5v6.1h13.1c0.2,0,0.5,0.2,0.5,0.5v6.9c0,0.1,0,0.2-0.1,0.3s-0.2,0.1-0.3,0.1h-13.1v6.6
	h19.8c0.2,0,0.5,0.2,0.5,0.5v6.9c0,0.1,0,0.2-0.1,0.3s-0.2,0.1-0.3,0.1L132,163.6L132,163.6L132,163.6z M177.4,143.1l6.2,0.2
	c0.3,0,0.6,0,0.8,0c2.3,0,3.6-0.3,4.4-1.1c0.6-0.6,0.8-1.5,0.8-3c0-1.7-0.3-3.2-4.1-3.3l-8.1-0.2L177.4,143.1z M199.6,164.7
	L199.6,164.7l-9.1-0.3c-0.2,0-0.3-0.1-0.4-0.2l-7.7-13.2l-5-0.2l0.1,12.7c0,0.1,0,0.2-0.1,0.3s-0.2,0.1-0.3,0.1l-7.7-0.2
	c-0.3,0-0.5-0.2-0.4-0.5l-0.2-35.1c0-0.1,0.1-0.2,0.1-0.3c0.1-0.1,0.2-0.1,0.3-0.1l19.3,0.6c6.4,0.2,10.1,4.3,10.1,11.2
	c0,6.7-3.5,9.4-6.8,10.6L200,164c0.1,0.1,0.1,0.3,0,0.5C199.9,164.6,199.8,164.7,199.6,164.7 M219.6,166.8c-0.5,0-1,0-1.5,0
	c-5.4-0.3-11.1-3.7-12.7-4.7c-0.1-0.1-0.2-0.2-0.2-0.4v-8.1c0-0.3,0.2-0.5,0.5-0.5c0.1,0,0.2,0,0.2,0.1c4.9,3.3,9.6,5.4,12.3,5.5
	c2.5,0.1,4.2-0.2,5-1.1c0.4-0.4,0.6-0.9,0.6-1.6c0-0.8-0.8-1.6-2.5-2.4c-1-0.5-2.2-1-3.5-1.6c-5.5-2.2-13-5.3-13-13.6
	c0-2.8,0.9-5.1,2.6-6.8c2.2-2.2,5.8-3.4,9.8-3.2c4.7,0.3,10.4,2.7,13,4.3c0.1,0.1,0.2,0.2,0.2,0.4v7.8c0,0.2-0.1,0.3-0.2,0.4
	c-0.1,0.1-0.3,0.1-0.5,0c-1.6-1.1-7.3-4.6-12.6-4.8c-1.9-0.1-2.8,0.4-3.2,0.8c-0.4,0.4-0.4,0.8-0.4,1c0,0.8,0.8,1.7,2.6,2.6
	c1,0.6,2.4,1.1,3.8,1.7c5.4,2.3,12.8,5.4,12.8,12.8c0,3.3-0.9,6-2.9,7.9C227.4,165.6,224,166.8,219.6,166.8 M247.6,152.6l6.3,0.5
	l-3.1-8.6L247.6,152.6z M267.4,169L267.4,169l-7.6-0.6c-0.2,0-0.3-0.1-0.4-0.3l-2.5-7.1l-12.3-0.9l-2.6,6.6
	c-0.1,0.2-0.3,0.3-0.5,0.3l-6.3-0.5c-0.1,0-0.3-0.1-0.4-0.2c-0.1-0.1-0.1-0.3,0-0.4l13.6-34.4c0.1-0.2,0.3-0.3,0.5-0.3l5.3,0.4
	c0.2,0,0.3,0.1,0.4,0.3l13.3,36.4c0.1,0.1,0,0.3-0.1,0.4C267.7,168.9,267.6,169,267.4,169 M294.6,171.5L294.6,171.5l-21.8-2
	c-0.2,0-0.4-0.2-0.4-0.5l-0.2-35.5c0-0.1,0-0.3,0.1-0.3c0.1-0.1,0.2-0.1,0.4-0.1l6.6,0.6c0.2,0,0.4,0.2,0.4,0.5l0.1,28.1l14.8,1.4
	c0.2,0,0.4,0.2,0.4,0.5v7c0,0.1,0,0.2-0.1,0.3C294.8,171.4,294.7,171.5,294.6,171.5 M165.7,78.1c-3.7-0.9-7.7-0.2-7.6-0.1
	c-0.4-0.1-1.2-0.4-1.6-0.3c-0.1,0-0.1,0-0.1,0c0.1,0,0.2,0.1,0.3,0.1c-0.3,0.1-0.4,0-0.6-0.1c0.1,0.2,0.1,0.2,0,0.4v0.1
	c0.6,0.1,1.2,0.4,2,0.3l0,0c-0.2-0.2-0.6-0.2-0.8-0.4h-0.1l0,0c0.5,0.1,1,0.3,1.4,0.6c0.1,0,0.1-0.1,0.2-0.1
	c-0.1,0.2-0.3,0.3-0.2,0.5c-0.9-0.1-1.6-0.5-1.9,0.5c0.1,0.1,0.2,0.2,0.3,0.2c-0.1,0-0.1,0-0.2,0.1c0,0.1,0,0.2,0,0.2
	c0.4,0.3,0.6,0.5,1,0.7c0,0.2,0,0.3,0.1,0.5c0.1,0.1,0.1,0.1,0.3,0c0.2,0.2,0.1,0.3,0.2,0.4c0.2,0.3,1.2,0.8,1.4,1.1
	c0.1,0.1,0,0.3,0.2,0.4c0.3,0.2,0.7,0.4,1,0.6c0.1,0.1,0,0,0,0.1c0.7,0.3,1.7,0.3,2.2,0.6c0.1,0.1,0.1,0,0,0.2
	c0.6,0.2,1.1,0.3,1.7,0.5h0.1c0-0.2,0-0.2,0-0.3c0.3-0.2,0.4-0.6,0.7-0.8c-0.1-0.2-0.2-0.2-0.1-0.5c0.5-0.1,0.6-0.3,1-0.4
	c0-0.2,0-0.3-0.2-0.4c0.1-0.1,0.1,0,0.3,0l0.1-0.1c-0.1-0.1-0.3-0.2-0.4-0.3H166l0,0c0.2,0.1,0.5,0.1,0.7,0.1h0.1
	c-0.1-0.1-0.1-0.1-0.2-0.2l0,0c0.3,0.2,0.5,0.2,1,0.2c0-0.1,0.1-0.2,0.1-0.3c0.1,0,0.1,0,0.2,0c-0.1,0.1-0.1,0.2-0.2,0.3v0.1
	c1,0.2,1.7-0.2,2.6-0.3v-0.2c1.1-0.3,2.7,0.4,3.8,0.3C174.6,82,170.2,79.2,165.7,78.1 M115.9,170.7c0.5,0.8,1,2,1.6,2.6
	c1.4,1.4,3.6,2.1,4.4,3.9c0.4,0.4,0.8,0.8,1.2,1.2c0,0.2,0,0.4-0.1,0.6c0.1,0.6,0.3,1.3,0.2,2c0,0.3-0.1,0.6-0.1,0.9
	c0,0.2,0.1,0.4,0.1,0.6c-0.1,0.6-0.3,1.2-0.3,1.9c-0.2,0.1-0.1,0-0.3,0c0,0.2,0,0.4,0,0.6h0.2c0,0.4-0.1,0.8-0.1,1.1
	c0,0.4,0.1,0.8,0.1,1.1c-0.1,0.2-0.3,0.2-0.3,0.4c0,0.1,0.1,0.3,0.1,0.4c-0.1,0.8-0.2,1.4-0.4,1.9c-0.2,0.5,0,0.9-0.4,1.2
	c0.1,0.6,0.3,0.9,0.2,1.6c-0.2,0.1-0.1,0-0.3,0c-0.1,1.4,0.6,2.2,0.2,3.2c0.1,0,0.2,0.4,0.2,0.6c-0.3,0.9-0.8,1.8-0.8,2.9l-0.1-0.1
	c0,0.2,0,0.4,0,0.6c-0.1,0-0.2-0.1-0.4-0.1l0,0c0.1,0.8,0.5,1.6,0.8,2.3c0,0.9-0.6,1.2,0.1,2.2v0.2c-0.1,0-0.1-0.1-0.2-0.1
	c-0.1,0.4,0.1,0.8,0,1.3c0.1,0.2,0.3,0.2,0.6,0.3h0.1c0.1-0.4,0-1-0.2-1.3c0,0,0.1,0,0.1-0.1c0.1,0,0.2,0.1,0.3,0.1l0,0
	c0-0.2,0.1-0.2-0.1-0.2c0-0.1,0.1-0.1,0.1-0.2c0.1,0.1,0.1,0.2,0.2,0.3c0,0.1-0.1,0.1-0.1,0.2c0.2,0.1,0.3,0.6,0.1,0.7
	c0.1,0.1,0.1,0.1,0.2,0.2c-0.1,0.7,0,1.2,0,2h-0.1c-0.1-0.2-0.2-0.9-0.1-0.9c-0.2-0.2-0.3-0.4-0.6-0.5c-0.1,0.2-0.2,0.5-0.2,0.8
	c0.1,0.1,0.2,0.2,0.3,0.3c0,0.2,0,0.4,0,0.6h-0.3l0,0c0,0.1,0.1,0.2,0.1,0.2c-0.1,0.1-0.2,0.2-0.3,0.3v0.2c0.1,0.1,0.2,0.1,0.3,0.2
	c0.1-0.1,0.1-0.1,0.2-0.2c0.2,0.2,0.6,0.2,0.7,0.4c-0.1,0-0.1,0-0.2,0c0.1,0.1,0,0.1,0.1,0.2c0,0.1-0.1,0.3-0.1,0.4
	c-0.2-0.1-0.2-0.1-0.4-0.2v0.1l0.1,0.1c-0.1,0-0.1,0.1-0.2,0.1c0.2,0.4,0.3,1,0.6,1.4c0.2,0.1,0.4,0.2,0.6,0.3
	c-0.1,0-0.2-0.1-0.3-0.1l0,0c0,0.2,0.1,0.3,0.1,0.5c0.1,0,0.1,0.1,0.2,0.1c0.1-0.1,0.1-0.2,0.2-0.4c0,0.1,0.1,0.2,0.1,0.3h-0.2l0,0
	c0.2,0.2,0.2,0.4,0.2,0.7c0.2-0.1,0.3-0.1,0.5-0.2c0.1,0.1,0.1,0.1,0.2,0.2l-0.1,0.2c-0.1,0-0.3-0.1-0.4-0.1v0.1
	c0.1,0.3,0.4,0.4,0.6,0.6c0-0.1-0.1-0.1-0.1-0.2c0.2,0.2,0.5,0.4,0.7,0.6l0,0c-0.2-0.1-0.4-0.2-0.7-0.3c0.3,0.4,0.5,0.5,0.8,0.5
	c0,0.1,0,0,0,0.1c0.3,0.3,1.7,1.2,2.1,1.1c0,0.2,0,0,0,0.2c0.4,0.4,1.7,0.9,2.3,1l0,0c-0.1-0.1-0.2-0.2-0.3-0.3c0.5,0.1,0.7,0,1,0.3
	v-0.2c0.2,0,0.4,0.1,0.6,0.1l0,0v-0.1v-0.1c-1.1-0.1-1.5-1.1-2.4-1.4c0-0.1,0.1-0.1,0.1-0.2c-0.3-0.3-0.6-0.3-0.8-0.5h-0.1l0.1-0.1
	c0.2,0.1,0.4,0.2,0.6,0.2l0,0c-0.3-0.4-0.9-0.7-0.9-1.4c0,0,0-0.1,0.1-0.1c0.2,0,0.4-0.1,0.6-0.1c0.2-0.1,0.1-0.4,0.1-0.7
	c0.3-0.2,0.8-0.3,1-0.5c0.1-0.1,0.1-0.4,0-0.6c-0.7-0.5-1.7-0.6-1.5-1.6c0.3-0.2,0.7-0.3,1.2-0.2h0.2c-0.1-0.2,0-0.1-0.1-0.2
	c0.1-0.2,0.1-0.2,0.3-0.2c0-0.3-0.1-0.5-0.1-0.7c0.2-0.3,0.3-0.4,0.7-0.4c-0.1-0.2-0.4-0.2-0.5-0.4h-0.1c0.1,0,0.2-0.1,0.3-0.1
	c0.2,0.2,0.3,0.2,0.4,0.5c0.1,0,0.2,0,0.3,0l0.1-0.1c0-0.3,0-0.4-0.1-0.5l-0.1-0.1c-0.2,0-0.3,0-0.5,0c0.1,0.1,0.1,0.1,0.2,0.2l0,0
	c-0.1,0-0.2-0.1-0.3-0.1c-0.1-0.1-0.1-0.2-0.4-0.3c-0.1-0.3-0.2-0.7-0.3-1.1c0.3-0.4,1,0.4,1.5,0.5c0.3,0,0.7,0,1,0l0.2-0.5
	c-0.1,0-0.1,0.1-0.2,0.1c-0.1-0.1-0.1-0.1-0.2-0.2c0.2-0.3,0.5-0.6,0.3-1c0.1,0,0.1,0.1,0.2,0.1l0,0c0-0.1-0.1-0.2-0.1-0.3
	c0.6,0.2,3.3,0.6,4,0.2c0.2-0.1,0.8-0.9,1-1.1v-0.6c-0.4-0.1-0.5-0.1-0.6-0.6c0.1-0.1,0.2-0.2,0.3-0.3c-0.2-0.7-0.9-0.8-1.3-1.4
	c0.1-0.1,0.1-0.1,0.2-0.2c0,0,0.1,0,0.1-0.1c0.1,0.2,0.2,0.2,0.3,0.5c0.3,0.1,0.5,0.1,0.8,0.2c0.2,0.2,0.5,0.7,0.8,0.7
	c0.2,0.1,0.4-0.1,0.7,0c0.2,0.1,0.3,0.3,0.7,0.3c0.8-0.1,1-0.5,1.5-0.8c0.3-0.1,0.6-0.3,0.9-0.4c0.2-0.3,0.4-0.6,0.7-0.8
	c0.6-0.2,1.1-0.5,1.7-0.7c0.7-0.4,1-1.2,1.6-1.7c0.8-0.6,1.7-0.7,2-1.8c-0.1,0-0.1,0-0.2,0c0.1-0.4,0.1-1,0.4-1.5
	c0.2-0.5,3.1-1.9,3.9-1.7c0.2,0.1,0.3,0.3,0.5,0.4c0-0.1,0.1-0.2,0.1-0.3c-0.1,0-0.1,0-0.2-0.1l0,0c0.4-0.1,0.8-0.7,1.1-0.5
	c0.1-0.1,0.1-0.1,0-0.2v-0.1c0.8,0,2.3,0.3,3,0.7c0.1-0.1,0.1-0.1,0.2-0.2c0-0.7,0.8-0.4,1.2-0.6c0.3-0.2,0.3-1,0.8-1.3
	c0.8-0.4,0.7-0.6,1.3-1c0.2-0.2,0.5-0.1,0.6-0.4c0.6-0.9,0.2-1.3,1.3-1.7c0.2-0.6,0.3-1.1,0.7-1.6c0.2-0.2,0.4-0.4,0.5-0.6
	c0.2-0.6,0.1-1,0.3-1.5c0.2-0.6,0.7-0.9,0.8-1.6c0.5-0.3,1-0.2,1.5-0.5c0.7-0.6,1.4-1.2,2.1-1.9c0.2-0.1,0.5-0.1,0.8-0.2
	c0.3-0.2,0.6-0.5,1-0.8c1.2-0.7,2.1-1.4,2.6-2.9c0-0.3,0-0.6,0-0.9c0.1-0.5,0.7-4,0.7-4C140,170.3,115.9,170.7,115.9,170.7
	 M144.7,80.1c0.5,0.1,1.2,0.2,1.8,0.4c0.6,0.3,0.7,0.6,1.4,0.7c-0.1,0.1-0.2,0-0.4,0c0.2,0.3,0.3,0.4,0.7,0.4
	c-0.1,0-0.1,0.1-0.2,0.1c0.2,0.2,0.3,0.3,0.5,0.4h0.2c-0.1-0.2,0-0.1-0.2-0.2l0,0c1.2,0.4,2.3,1.2,3.7,1.5c0.1-0.2,0-0.1,0.2-0.1
	l0,0c-0.4-0.5-1.4-1.1-2-1.4c0,0,0-0.1,0-0.2c0.3,0.1,0.5,0.3,0.8,0.4v-0.2c0.8,0.4,1.6,1,2.4,1.4c0.1,0,0.1,0,0.2,0h0.1l0,0
	c-0.3-0.2-0.4-0.2-0.6-0.4c0.1,0.1,0.2,0.1,0.3,0.1l0,0c0-0.2,0-0.2-0.1-0.3v-0.1c0.1,0.1,0.1,0,0.1,0.2c0.3,0,0.2,0,0.3-0.2
	c0.1,0.2,0.1,0.2,0.2,0.2l0,0c0-0.1-0.1-0.1-0.1-0.2h0.3v-0.1c-0.2-0.2-0.5-0.3-0.8-0.4V82c0.1,0,0.2,0,0.3,0l0,0
	c-0.2-0.2-1-0.8-1.5-0.7c0-0.2-0.1-0.6-0.4-0.6h0.3v-0.1c-0.1-0.1-0.1-0.1-0.2-0.2c0.6,0,1,0.5,1.5,0.5c-0.2,0.5,0.9,0.7,1.3,1
	c0.3,0,0.3-0.1,0.5-0.2l-0.1-0.1c0.1-0.1,0-0.1,0.1-0.2c0.2,0.1,0.4,0.2,0.6,0.1v0.2c0.1,0,0.2,0,0.3,0c0-0.1-0.1-0.1-0.1-0.2
	c0.1-0.1,0,0,0.2,0c0.1,0,0.1,0,0.1,0c-0.1-0.1-0.1-0.2-0.2-0.2c0.4,0.1,0.5,0.1,0.8,0c-0.1-0.3-0.6-0.5-1-0.5
	c-0.1-0.1,0-0.1,0.1-0.1c-0.1,0-0.3,0-0.4,0c-0.1-0.1-0.3-0.3-0.7-0.3c0.1-0.1,0,0,0.2-0.1c-0.1-0.1-0.5-0.3-0.8-0.3l-0.1-0.1
	c0.1,0,0.1-0.1,0.2-0.1c-0.4-0.1-0.6-0.2-0.8-0.1c-0.3-0.2-0.2-0.3-0.7-0.4l0.1-0.1c-0.3-0.1-0.7-0.2-1-0.2l0,0c0.1,0,0.2,0,0.3,0
	c0-0.2,0-0.1,0-0.2c0.3,0.1,0.6,0.2,0.9,0.2c0,0,0.1,0,0.1-0.1c-0.2-0.2-0.5-0.3-0.7-0.3v-0.1c0.2,0,0.3,0.1,0.5,0.1l0,0v-0.1
	c-0.4-0.3-0.5-0.3-1-0.3c0.1-0.2,0.2-0.1,0.4-0.2l0,0c-0.4-0.3-1.1-0.2-1.5-0.4c0,0-0.4-0.4-0.5-0.5c-0.3-0.2-1.4-0.4-1.6-0.4
	l0.1-0.1c-0.4-0.2-0.8-0.3-1.2-0.5h0.3l0,0c-0.2-0.3-2.1,0.5-2.5,1c-0.1-0.1,0.8,0.7,0.5,0.7l-0.1,0.1H146c0.1,0.2,1,0.2,1.2,0.2
	v0.1c-0.2,0.1-0.2-0.1-0.4,0h-0.1c0.1,0.3,0.4,0.2,0.7,0.1c0,0.1,0.1,0.2,0.1,0.3c-0.2-0.1-0.3-0.1-0.5-0.1c0.1,0.3,0.6,0.3,0.9,0.4
	c0-0.1,0-0.1,0-0.2c-0.1,0-0.3-0.1-0.4-0.1c0-0.1,0-0.2,0-0.2c0.2,0.1,0.4,0.2,0.7,0.3c0.1,0.2,0.1,0.4,0.2,0.6
	c-0.7,0.1-1.3,0.2-2,0.2v0.1c0.1,0.1,0.3,0.3,0.4,0.4l0,0c-0.5-0.1-1,0-1.4-0.1c-0.9-0.2-1.6-0.6-2.5-0.1v0.1
	C143.4,80.3,144.2,80.1,144.7,80.1 M117.2,109.7c0.3,0.2,1.2-0.3,1.6-0.3c0.2,0.3,0.6,1.3,0.8,1.3c0.3,0.8-0.6,1.2-0.5,1.8h0.1
	c0.2-0.1,0.1-0.1,0.1-0.3h0.1c0.1,0.2,0,0.2,0.2,0.2c-0.2,0.1-0.3,0.2-0.5,0.4c-0.1,0.2,0,0.6,0.1,0.9c0.1,0,0.1,0.1,0.2,0.1
	c0-0.1,0.1-0.1,0.1-0.2v0.1c-0.2,0.2-0.2,0.3-0.3,0.5c0.1,0,0.1,0,0.2,0c0.1,0.2,0.1,0.2,0.1,0.5c0,0.6,0.7,0.6,0.4,1.3
	c0.2,0.3,1,0.1,1.2,0.1c0-0.5,0.7-1.1,0.9-1.6c0.3-0.6,0-1.5,0-2.3c0.1,0,0.2-0.1,0.3-0.1c-0.1-0.6-0.2-1.2-0.3-1.8
	c0.2-2.3,2-2.8,3.9-3.4c0.9-0.3,0.5-1,2.1-0.7c0.4-0.7,1.7-0.6,2.5-0.8v-0.1c-0.2-0.1-0.1-0.1-0.2-0.2l0,0c0.2-0.1,0.8-0.2,1.1-0.2
	c0.1-0.1,0.2-0.2,0.2-0.3c-0.1-0.2-0.4-0.3-0.8-0.3v-0.1c0.3,0.1,0.5,0.1,0.8,0.1v0.3c0,0,0.1-0.9,0.1-1.3c-0.1,0-0.2-0.1-0.3-0.1
	c-0.1-0.1,0,0,0-0.2s0.3-0.6,0.4-0.8c-0.1-0.1,0-0.8,0-1c0.2-0.2,0.4-0.3,0.6-0.5c-0.5,0.7-0.2,0.7-0.4,1.5c0.1,0,0.2,0.1,0.4,0.1
	c-0.2,0.2-0.5,0.3-0.6,0.6c0,0,0,0,0,0.1c0.1,0.1,0,0.1,0.2,0.1c0.2-0.5,1.2-0.8,1.7-1.6c-0.3-0.3-0.2-0.4-0.2-0.8
	c0.2,0.2,0.3,0.3,0.6,0.4c-0.1,0.1-0.1,0.1-0.2,0.2l0,0c0.7,0.1,1.5-0.8,1.8-1.2c-0.1-0.2,0-0.1-0.1-0.2v-0.1c0.8-0.1,1.8,0.1,2.7,0
	c-0.1-0.1-0.1-0.2-0.2-0.3c-0.6,0.1-1.2-0.2-1.8,0c0.7-0.6,3,0.2,4-0.1c0.1,0.3,0.3,0.2,0.8,0.3c0.1-0.1,0.1-0.2,0.2-0.2
	c0-0.1-0.1-0.1-0.1-0.2c-0.1,0.2,0,0.2-0.3,0.2c-0.1,0-0.2,0-0.3,0c-0.1-0.3,0-0.6-0.4-0.7v-0.1c0.2-0.1,0.4-0.1,0.6-0.1
	c-0.1-0.1-0.1-0.2-0.2-0.2c0.3-0.4,0.9-0.5,1.2-0.8c0.7,0.1,1.1,0.1,1.7-0.2c0.1,0.1,0.1,0.1,0.1,0.2c0.8-0.1,1.6,0,2.5-0.2
	c0-0.1-0.1-0.2-0.1-0.2c0.1,0,0.5,0.2,0.7,0.2c0.6,0.1,1.9,0,2.4-0.2c0,0,0,0.1,0.1,0.1c-0.2,0.1-0.4,0.1-0.6,0.1v0.1
	c0.2,0,0.5,0.1,0.7,0.2c-0.8,0.1-1.6,0.3-2.4,0.4v0.1c0.1,0,0.2,0,0.3-0.1c-0.1,0-0.1,0-0.2,0.1c-0.2,0.3-0.3,0.3-0.3,0.7
	c0.1,0,0.2,0,0.2,0c0.2,0.2,0.1,0.4,0.4,0.4c0.6,0,1.1-0.4,1.8-0.4c0.1-0.2,0-0.2,0.2-0.3l0.1,0.1c0.1,0,0.1-0.1,0.2-0.2
	c0.1,0.3,0.2,0.3,0.4,0.3c0.4-0.4,2.6,0.1,3.3-0.1h0.1c-0.1-0.1-0.2-0.2-0.5-0.2c0.1-0.1,0.1,0,0.2-0.2c0.5,0.2,1.1,0.1,1.8,0.1
	v-0.1c0-0.2-0.3-0.5-0.6-0.5l0,0c0.1-0.1,0.2-0.3,0.3-0.4c-0.1-0.1-0.1-0.1-0.1-0.2c-0.1,0-0.2,0-0.3-0.1c-0.4,0.2-1.4,0.4-1.4,1
	c-0.3,0-0.4,0-0.5-0.3c-1,0.1-1.4-0.4-2.2-0.5c-0.1-0.1-0.1-0.1-0.2-0.2c0.1,0,0.1,0,0.2,0V97c-0.3-0.1-0.5-0.2-0.8-0.3
	c-0.1-0.1-0.3-0.5-0.4-0.7c0.1,0,0.1-0.1,0.2-0.2c-0.1-0.1-0.2-0.1-0.5-0.1v-0.1c0.4-0.1,0.7-0.3,1.1-0.5c0-0.1,0.1-0.1,0.1-0.2l0,0
	c-0.4,0.1-0.8,0.1-1.4,0c-0.1-0.3-0.3-0.4-0.6-0.5v-0.1c0.6,0.1,0.8,0.3,1.3,0.4c0.4-0.1,0.9-0.1,1.3-0.2v-0.1c0.1-0.1,0-0.1,0-0.2
	c0.1,0,0.1,0,0.2,0l0,0c-1-1.4-4.7-0.9-6.2-0.6c-0.6,0.1-1.1,0.7-1.9,0.7c0.4-0.3,2.6-1.2,3.3-1.4c0,0,1.4,0.1,1.5,0.1
	c0.1-0.1,0.3-0.3,0.4-0.4c0.6-0.3,1.4-0.2,2.2,0c1,0.3,1.9,0.4,2.9,0.7c0.6,0.2,2.4,0.9,3,0.8c0.5-0.1,0.9-0.2,1.4-0.4
	c1-0.4,3.1,0.6,3.8-0.1c0.1-0.1,0,0,0-0.2h0.1c0.1-0.2,0-0.9,0.1-1.1c-0.2-0.1-0.5-0.2-0.7-0.3c0-0.1,0,0,0-0.2
	c-0.4,0-0.5-0.1-0.8-0.1c-0.1-0.5-0.5-0.7-1.1-0.7l0,0c0.4,0,0.7,0.1,1.1,0.1c-0.2-0.3-0.7-0.3-0.7-0.6c-0.3-0.1-0.7,0-0.9-0.2
	c-0.2-0.1-0.1-0.1-0.1-0.2c-0.2-0.1-0.6-0.1-0.8-0.2c-0.2-0.2-0.2-0.3-0.5-0.4c-0.1-0.2-0.1-0.1,0-0.2c0-0.1-0.8-0.6-1.1-0.7
	c0.1-0.1,0.1-0.1,0.2-0.1c0-0.1,0-0.3,0-0.6c-0.1,0-0.2-0.1-0.3-0.1c0,0,0.1-0.2,0.1-0.5c-0.4-0.2-0.8-0.3-0.7-0.7h-0.2
	c-0.2-0.4-1.2-1.6-1.2-2c-1,0.3-2.4,1.9-3.8,0.8c-0.2,0-0.4-0.3-0.8-0.4c0-0.1,0-0.2,0-0.4c-0.1,0-0.2,0-0.3,0
	c0.1-0.3,0.3-0.4,0.2-0.8c0.2-0.1,0.3-0.1,0.5-0.2c0-0.1-0.1-0.1-0.1-0.2c-0.1,0-0.3,0.1-0.4,0.1c-0.3-0.3-0.9-0.4-1.4-0.6v-0.1l0,0
	c0.1-0.1,0.1-0.1,0.2-0.1l0,0c-0.3-0.3-1-0.8-1.4-0.9h-1.1c-0.9-0.3-1.7-0.6-2.6-0.6c-0.1,0.1-0.2,0.2-0.3,0.2c0,0.1,0,0.1,0,0.2
	c0.1,0.1,0.1,0.1,0.2,0.2c-0.2,0.2-0.4,0.3-0.8,0.4c0.3,0.4,0.1,0.4,0.3,0.7c-0.1,0.1-1.1,0.5-1.5,0.5c0,0.1-0.1,0.2-0.1,0.2
	c0.5,0.2,1,0.6,1,1.2c-0.4,1-1.5,1.1-2.7,1.3c-0.4,0-0.9,0-1.3,0h-0.1c0,0.2,0,0.4,0.2,0.5c-0.2,0.4-0.7,0.9-0.4,1.4
	c-0.2,0.2-0.5,0.4-0.8,0.4c0,0.1,0,0.2,0,0.4c-0.1,0-0.1,0-0.2,0c0-0.2-0.1-0.1-0.2-0.3c-0.3,0-0.5,0.2-0.8,0.3
	c-0.2-0.1-0.3-0.1-0.4-0.2c-0.1-0.7-0.6-1.1-0.8-1.7c0.2-0.2,0.4-0.4,0.6-0.6c0-0.1,0-0.2,0-0.3c0.2-0.2,0.5-0.4,0.7-0.7
	c-0.9-0.1-3.4-0.8-3.9-1.3c-0.2-0.2-0.2-0.5-0.5-0.7c-0.4-0.2-0.8-0.4-1.2-0.5c-0.4,0-0.9,0-1.3,0h-0.1c0.3-0.3,0.5-0.8,0.7-1.1
	c-0.2-0.1-0.5-0.1-0.9-0.1c0-0.1,0-0.1,0-0.2c0.8-1,3.5-1.9,4.6-1.9c-0.1-0.1-0.1-0.1-0.2-0.2c0.4,0,0.9,0.1,1.3,0
	c0.2-0.2,0.1-0.2,0-0.4h-0.1l0,0c0.7,0.2,2.9,0.2,3.9-0.3c0.1-0.1,0,0,0-0.2c0.4-0.1,0.9-0.2,1.3-0.3h0.1l0,0
	c-0.1-0.1-0.1-0.1-0.3-0.1v-0.1c0.3,0,0.6,0,0.9,0.1c0,0.2,0.6,0.6,0.9,0.7c0.1-0.1,0,0,0.1-0.1l0,0c-0.1,0-0.1,0-0.2,0
	c-0.1-0.2-0.1-0.2-0.3-0.3l0,0c0.1,0.1,0.3,0.1,0.4,0.2c0-0.1,0-0.2,0-0.3c0.2,0.1,0.3,0.2,0.5,0.3v-0.1c0.7-0.2,1.4-0.2,1.9-0.3
	c-0.1-0.1-0.2-0.2-0.3-0.4c0,0-3.9-2.2-8.5-2.1c-3,0.1-13.6,3.7-22,8c-6.4,3.3-11.4,7.3-11.7,7.6c-2.6,2.2-5,5-6.3,8.3
	c-0.2,0.2-0.3,0.3-0.4,0.5s-0.8,2.1-0.9,2.2c0.1,0,0.2,0,0.4,0c-0.1,0.6,0.3,0.6,0.1,1.3c-0.2,1-0.9,2.2-1.3,3.3
	c-0.1,0.2-0.3,0.8-0.2,1.1c0.1,0.4,0.2,0.9,0.1,1.4c-0.2,0.3-0.3,0.5-0.5,0.8c-0.2,0-0.3,0.1-0.5,0l0,0c-0.1,0.6,0.2,0.9,0.1,1.4
	c0.1,0,0.1,0,0.2-0.1c0.3,0.9,0.2,1.8-0.5,2.5c0.2,0.8,0.6,1.3,0.5,2.6l0,0h0.1c0.7-0.8,0.6-0.7,0.6-1.7c0-0.1-0.1-0.2-0.1-0.3
	c-0.1,0.1-0.1,0.2-0.2,0.2l0,0c-0.1-0.7,0.6-2.3,0.7-3c0.1-0.4-0.2-1.2,0-1.7c0.3-1.2,0.4-3.9,1.5-4.7c0,0.1,0.1,0.2,0.2,0.3
	c0.1,0,0.1-0.1,0.2-0.1c0.2,0.7-0.7,1.8-0.6,2.8c-0.2,0.2-0.3,0.3-0.5,0.5l0.1,0.1c0.1-0.1,0.2-0.2,0.2-0.2c0,0.2-0.1,1,0.1,1.3
	c0.1,0.1,0,0,0.1,0c0,0,0.1,0,0.1,0.1c-0.1,0.3-0.2,0.4-0.2,0.9c0.1,0.1,0,0.1,0.2,0.1c0,0.2-0.1,0.3-0.1,0.5c0.1,0,0.1,0,0.2,0
	c0,0.6-0.2,0.7-0.5,1.1c0.1,0.5,0.3,0.6,0.5,1c-0.2,0.2-0.2,0.3-0.2,0.5c0.4,0.5,0.9,4.2,0.2,4.8c-0.2,0.3-0.2,0.2-0.1,0.5
	c-0.1,0.2-0.2,0.2-0.4,0.2c-0.6,1.4,0.7,1.8,0.7,3c0.1,0,0.2,0.1,0.3,0.2c0,0,4.7-0.2,7.4-0.2c0.1,0-0.2-0.1-0.3-0.2
	c-0.1-0.1-0.7-2.9-0.6-3.3c0.1-0.2,0.2-0.3,0.3-0.5c-0.4-0.9,0.2-1.8,0.6-2.6c0.3-0.7,0.6-1.4,0.9-2.1c0.3-0.3,0.8-0.2,0.9-0.8
	c0.1-0.4-0.1-0.8,0.1-1.3s0.7-0.6,0.7-1.2c0.3,0,0.7-0.2,0.8-0.4c0-0.1,0.1-0.1,0.1-0.2c0,0.2,0,0.1,0,0.3c0.2-0.1,0.1-0.1,0.2-0.1
	c0.1-0.1,0.1-0.2,0.2-0.2c0-0.1-0.1-0.1-0.1-0.2c0.7,0.1,1.3-0.2,1.9-0.6c0.4,0.1,0.2-0.2,0.2-0.4c0.1-0.1,0.2-0.2,0.3-0.2
	c0,0,0,0,0,0.1c-0.1,0.1-0.1,0.1-0.2,0.2c0,0,0.1,0,0.2,0.1c0.2,0.1,0.8-0.2,1.2-0.2c0.4,0,1.2,0.4,1.5,0.5h0.1v-0.2
	c-0.1,0-0.2,0-0.3,0v-0.1c0.1,0,0.2-0.1,0.3-0.1c0,0.2,0.3,0.4,0.4,0.6h-0.1l-0.1,0.1c0.1,0.1,0.3,0.2,0.4,0.3
	c0.2-0.1,0.4-0.2,0.6-0.2c0,0.1,0,0.2,0.1,0.3c0.3-0.1,0.3-0.2,0.5-0.4c0.2,0.2,0.3,0.4,0.5,0.5l0.1,0.1h0.1
	c0.1-0.1,0.1-0.2,0.2-0.2c-0.1-0.1-0.3-0.3-0.4-0.4l-0.1-0.1c0.1-0.2,0.2-0.2,0.5-0.2c0.1-0.1,0.1-0.1,0-0.4
	c-0.1,0.1-0.2,0.1-0.3,0.2l0,0l-0.1-0.1c0.6-0.4,1.4-0.3,2.1-0.2c0-0.1,0.1-0.2,0.1-0.3l0.1-0.1c0,0.2,0,0.4,0,0.5
	c0.9,0.1,1.6-0.3,2.3,0.5C117.1,109.3,117.1,109.6,117.2,109.7"/>
<path class="st1" d="M145.7,78c-0.2,0.1-0.4,0.1-0.6,0.2c0,0.1,0,0.1,0,0.2l0,0c0.3,0.2,1.2,0.3,1.6,0.1c0.1-0.1,0.2-0.2,0.2-0.2
	v-0.1C146.6,78.1,146.3,78,145.7,78 M147.9,78.1c0.1,0.1,0,0,0.1,0.1C148,78.2,148,78.1,147.9,78.1 M141.1,79.8
	c-0.2-0.1-0.5-0.2-0.7-0.1c0-0.1,0.1-0.2,0.1-0.3c-0.3-0.2-1-0.4-1.2-0.7c-0.2-0.1,0-0.3-0.2-0.5l-0.1,0.1c-0.8-0.1-1.6,0.3-1.9,0.8
	c-0.4,0-0.8,0-1,0.2c0.2,0.2,0.8,0.1,1.1,0.1l-0.2,0.1c0,0.1-0.1,0.2-0.1,0.2c0.6,0.1,1.6-0.1,2-0.3c0.2,0.1,0.5,0.1,0.7,0.2
	c-0.1,0-0.1,0-0.2,0.1c0.4,0.3,1.1,0.3,1.8,0.3C141.2,79.9,141.1,79.8,141.1,79.8"/>
<path class="st1" d="M139,78.5l-0.1-0.1c0,0.1-0.1,0.2-0.1,0.2C138.8,78.6,138.9,78.5,139,78.5L139,78.5z M150.1,79.9
	c0.2-0.1,0.1,0,0.1-0.2c-0.5,0-0.4-0.2-0.8-0.3c-0.1,0.1-0.2,0.1-0.3,0.2c0.1,0.2,0.1,0.2,0,0.3c0.5,0,0.7,0,1.2,0.1
	C150.2,80,150.2,79.9,150.1,79.9 M153.7,79.5C153.7,79.6,153.7,79.6,153.7,79.5L153.7,79.5C153.7,79.6,153.7,79.6,153.7,79.5
	 M150.4,79.8c0.1,0.1,0,0,0.1,0.1C150.5,79.9,150.4,79.9,150.4,79.8 M138.3,80c-0.2,0.1-0.5,0.1-0.7,0.2c0,0.1,0,0.2,0,0.3
	c0.6-0.1,1.2,0,1.8-0.2c0,0,0,0,0-0.1C139.1,80.1,138.7,80.1,138.3,80 M143,80L143,80c0.1,0.1,0.2,0.1,0.3,0.1l0,0
	C143.2,80.1,143.1,80.1,143,80 M149.1,80.7c-0.1-0.2-0.4-0.4-0.7-0.5c0,0.1,0,0.2,0,0.3H148v0.1C148.4,80.7,148.8,80.7,149.1,80.7
	C149.2,80.8,149.2,80.7,149.1,80.7 M142.3,80.3L142.3,80.3c0.1,0.2,0.1,0.2,0.2,0.3c0.1,0,0.3,0,0.4,0l0,0v-0.1
	C142.7,80.4,142.5,80.3,142.3,80.3 M143.6,80.4c-0.1,0-0.3-0.1-0.4-0.1c0.1,0.2,0.2,0.2,0.3,0.3h0.2c0,0,0,0,0-0.1
	C143.7,80.5,143.7,80.5,143.6,80.4 M140.6,80.8c-0.1,0-0.3,0.1-0.4,0.1c0,0.1-0.1,0.1-0.1,0.2s0.1,0.1,0.1,0.2
	c0.3,0,0.5-0.1,0.8-0.2c0-0.1,0.1-0.1,0.1-0.2C141,80.8,140.9,80.8,140.6,80.8 M147,81L147,81c0,0.1,0.1,0.1,0.1,0l0,0H147
	 M145,81.3c0.1,0.1,0.2,0.1,0.3,0.2h0.2C145.4,81.4,145.2,81.3,145,81.3 M165.8,82.2c0.1,0.1,0,0,0.1,0.1
	C165.9,82.2,165.9,82.3,165.8,82.2 M140.8,81.9C140.8,82,140.8,82,140.8,81.9l0.3,0.1l0,0C141,82,140.9,81.9,140.8,81.9 M181.9,85.1
	c-0.3,0.1-0.5-0.1-0.8-0.3c-0.1,0-0.1,0-0.2,0c0.1,0,0.1,0.1,0.1,0.1c-0.5,0.1-1-0.2-1.5-0.3l0,0c0,0.1,0,0.1,0.1,0.2
	c-0.2-0.2-0.4-0.3-0.7-0.4l0,0c0.1,0.1,0.2,0.2,0.2,0.3l0,0c-0.2-0.1-0.2-0.1-0.3,0c-0.5-0.4-0.9-0.9-1.7-1c0.1,0.1,0.1,0.1,0.2,0.2
	c-0.1,0-0.2-0.1-0.3-0.1c-0.1,0.1-0.2,0.2-0.3,0.3c0,0,0,0,0,0.1c0.6,0.1,1.1,0.3,1.6,0.4c-0.3,0.2-0.6,0.1-1,0c0,0,0,0,0,0.1v0.1
	c0.8,0.2,1.1,0.4,1.6,0.7v0.1c-0.1,0-0.3-0.1-0.4-0.1c0,0,0,0-0.1,0c0,0.1,0.1,0.1,0.1,0.2c1.1,0.3,3.9,1.7,4.9,0.6l0,0
	C183,86,182.2,85.5,181.9,85.1 M148.3,83.2L148.3,83.2L148.3,83.2L148.3,83.2z M152.2,83.4c0.1,0.1,0,0.1,0.2,0.1l0,0
	C152.3,83.4,152.4,83.4,152.2,83.4 M153.2,83.6c-0.1,0-0.2-0.1-0.3-0.1c-0.1,0.1,0,0.1-0.3,0.1l0,0c0.1,0.1,0.3,0.3,0.5,0.3
	c0.1-0.1,0.1-0.1,0.2-0.2L153.2,83.6z M149.9,83.8c-0.1,0-0.1,0-0.2,0c0,0-0.1,0-0.1,0.1l-0.1,0.1c0.1,0.1,0.4,0.1,0.6,0v-0.1
	C150,83.9,150,83.9,149.9,83.8 M215.2,120c-0.2-0.4-0.4-0.9-0.6-1.3c0,0.1,0.1,0.1,0.1,0.2c0,0,0,0,0.1,0v-0.1
	c0.1-0.2-0.2-0.5-0.3-0.7h0.1c0.1,0.1,0.2,0.2,0.3,0.3l0,0c-0.1-0.2-0.1-0.3-0.2-0.5c0.2,0.2,0.3,0.3,0.5,0.5
	c-0.2-0.5-0.8-1.4-1.2-1.6c0.1-0.2,0-0.1,0.2-0.1c-0.1-0.5-1-1-1-1.8l0,0c0.1,0.4,0.4,0.3,0.6,0.5h0.1c-0.2-0.2-0.3-0.5-0.5-0.7
	c0.1-0.1,0.2-0.1,0.2-0.2c0.2-0.1,0.3,0.3,0.6,0.3c0,0.2,0,0.2,0.1,0.4c0-0.5,0-1.2-0.1-1.3c-0.2-0.2-0.4-0.6-0.6-0.9
	c-0.6-1.1-1.1-1.9-1.6-3.1c-0.1-0.3-4-6.3-8.8-10.9c-5-4.7-11.1-8-11.1-8c-0.1,0.1-0.2,0.3-0.4,0.3c0,0.3,0,0.3,0.1,0.4
	c-0.1,0.1-0.2,0.1-0.4,0.2c0.2,0.2,0.4,0.4,0.5,0.6c0,0.2,0.1,0.3,0.1,0.4c0.4,0.6,1.2,0.9,1.5,1.6c0.2,0,0.2,0,0.3-0.1
	c0.1,0.2,0.1,0.3,0.2,0.5c0.2,0.3,1.3,0.9,1.7,0.6c0.2-0.1,0.2-0.4,0.1-0.7c0.1,0,0.2-0.1,0.2-0.1c0-0.1-0.1-0.1-0.1-0.2l0,0
	c1.2,0.6,1.8,2,3,2.5c0.1,0.2,0.1,0.3,0.2,0.4c-0.2,0.1-0.2,0.2-0.3,0.3c0.2,0.3,0.5,0.6,0.9,0.7c-0.1,0.2-0.1,0.1-0.3,0l0,0
	c0.1,0.2,0.2,0.2,0.3,0.3c0.1,0,0.2,0,0.2,0v-0.3c-0.1-0.1-0.2-0.4-0.5-0.5c0-0.1,0,0,0.1-0.1c-0.1-0.1-0.2-0.2-0.3-0.3
	c0.2,0.1,0.4,0.3,0.5,0.5c0.2,0,0.3,0,0.5,0l0,0v-0.1c-0.1-0.1-0.2-0.3-0.3-0.4c0.1-0.1,0.1-0.1,0-0.2c0.1,0,0.3,0,0.5,0.1
	c-0.1-0.1-0.1-0.2-0.2-0.3c0.1,0.1,1.8,1.6,1.7,1.6c-0.2,0.1-0.2,0.2-0.1,0.5c-0.1,0-0.1,0-0.2,0.1c-0.3,0.3-0.4,0-0.7,0
	c-0.1-0.1-0.1-0.1,0-0.2c-0.1-0.1-0.3-0.2-0.4-0.3c0,0.1,0,0.2,0,0.2c-0.1,0-0.2,0-0.2-0.1c0.1,0.2-0.1,0.2-0.1,0.5
	c-0.1,0-0.1,0-0.2,0c-0.1-0.1-0.1-0.3-0.1-0.4c-0.1-0.1-0.1-0.1-0.2-0.1c0,0,0.1,0.1,0.1,0.2c-0.3,0-0.6-0.3-0.8-0.5
	c-0.1,0,0,0,0-0.1c-0.1-0.1-0.2-0.1-0.4-0.2v-0.1v-0.1c0.3,0.2,0.6,0.3,0.8,0.5c-0.2-0.4-0.6-0.9-1-0.8c-0.1-0.1-0.1-0.4-0.3-0.6
	c0.1,0,0.1,0.1,0.2,0.1c0-0.1,0-0.1,0-0.2c-0.4-0.4-0.9-0.7-1.2-1.3c-0.1,0-0.2,0.1-0.2,0.1c0,0.1,0.1,0.2,0.1,0.3
	c-0.1,0-0.1,0-0.2,0c-0.1,0-0.1,0.1-0.2,0.1c0.1,0.7,1.7,1.9,1.6,2.2c0.1,0,0.2,0,0.3,0.1c0.2,0.3,0.4,0.5,0.6,0.8
	c-0.2,0.1-0.1,0-0.1,0.2c-0.3-0.1-0.3-0.1-0.6-0.1v0.2c-0.2,0-0.4,0-0.6,0.1c0,0.1-0.1,0.1-0.1,0.2c0.1,0.1,0.1,0.2,0.2,0.3
	c0.2,0.1,0.1,0.1,0.3,0c0.1,0.2,0.2,0.3,0.2,0.5c-0.1,0.1,0,0.1-0.2,0l0,0c0,0.3,0,0.3,0.2,0.5c-0.1,0-0.2,0-0.3-0.1
	c-0.1-0.4-0.3-0.8-0.4-1.2h-0.1l0,0c0.1,0.6,0.6,1.4,0.3,1.8c-0.2,0.2-0.6,0.2-0.8,0.5c0.1,0.3,0.2,0.5,0.3,0.8
	c-0.1,0.1-0.2,0.2-0.5,0.2c-0.1,0.1-0.2,0.3,0,0.4l-0.1,0.1c-0.5,0.1-1.1-0.3-1.5-0.5l0,0c0.2,0.3,0.6,0.6,0.7,1
	c0.1,0,0.1,0.1,0.1,0.1l0,0c-0.3,0-0.5-0.1-0.8,0.1c-0.2-0.1-0.3-0.2-0.5-0.4c-0.3,0.2-0.7,0.1-1,0.3h-0.1c0.1,0.4,0.3,0.3,0.6,0.5
	c-0.1,0-0.2,0-0.3,0c0.4,0.4,1.1,0.3,1.7,0.5c0,0,2,1.8,2,1.9c-0.1-0.1-0.1-0.1-0.2-0.2l0,0c0.5,0.7,1,1.7,1,3
	c-0.7,0.3-2.4-0.2-3.4-0.3c-0.3,0-0.9,0.3-1.3,0.1c-0.2-0.1-0.3-0.2-0.6-0.2c-0.2-0.1-0.3,0.2-0.3,0.4c-0.2,0.1-0.5,0.1-0.5,0.2
	c-0.1,0-0.1,0.1-0.2,0.1c0,0.4,0.3,0.4,0.3,0.7c0.1,0,0.1,0,0.2-0.1c0.1,0.7,0.5,1.2,0.8,1.9c0.2,0.6,0.1,2.4,0,3
	c0.2,0.2,0.3,0.3,0.5,0.5c0.1-0.1,0.2-0.1,0.2-0.2c0.2,0.6,0.4,1.1,0.3,2c0.4-0.1,0.9,0.1,1.1,0c0.2,0,0.2-0.2,0.5-0.3
	c0.7-0.3,1.1,1.4,1.8,1.5c0.2-0.2,0.8-0.7,0.8-0.9c0.6,0,1-0.1,1.4,0.1c0-0.1,0.1-0.1,0.1-0.2c0.2,0,0.2,0,0.4,0.1
	c0.1-0.3,0.2-0.8,0.3-1.1c0.1-0.1,0.2-0.1,0.5-0.1c0-0.2-0.2-0.6,0-1c0.1-0.2,0.3-0.3,0.3-0.6c-1.3-0.9-0.1-1.9-0.5-2.6
	c0.2-0.3,0.4-0.2,0.7-0.4c0.2-0.1,0.4-0.5,0.5-0.7c-0.1-0.5-0.8-1.1-0.6-1.6c0.1-0.1,0.3-0.2,0.3-0.4c0.6,0.2,1,0.5,1.6,0.7
	c0.3-0.2,0.2-0.7,0.7-0.8c0-0.2,0.1-0.4,0.1-0.6v-0.1c1.1,0.2,1.8,1.7,2.4,2.5l1.6,1.5c0,0,0.2-0.1,0.4,0c0.1,0.2,0.2,0.3,0.3,0.5
	c1.2,1.1,1.6,1.5,2.1,3.2c-0.1,0.1-0.4,0.1-0.5,0.3c-0.4,0-0.4-0.1-0.7-0.3c-0.1,0.1,0,0.1-0.1,0.2c-0.1-0.1-0.1-0.1-0.2-0.1l0,0
	c0,0.2-0.1,0.4,0,0.6c0.1,0.1,1.6,1.3,1.8,1.4l0,0c-0.1-0.6-0.4-1-0.4-1.7c0.1,0.1,0.2,0.1,0.2,0.2l0,0c0.1-0.3,0-0.7-0.1-1
	c0-0.2,0-0.2,0.2-0.2c-0.1-0.5-0.4-0.6-0.7-0.9c-0.1-0.3-0.2-0.6-0.3-1c0,0,0.1,0,0.1-0.1c0.2,0.3,0.6,0.8,0.9,0.9
	c-0.2-0.9-1.1-1.7-1.9-2.1c-0.1-0.2-0.1-0.3-0.1-0.6c-0.3-0.1-0.5,0-0.7-0.2c-0.6-0.5-0.9-1.3-1.3-1.9c-0.4-0.5-1.2-0.7-1.4-1.5
	c0-0.1,0-0.2,0.1-0.3c-0.1-0.2-0.3-0.3-0.4-0.6c0.2,0,0.2-0.1,0.3-0.3c0.1,0,0.1,0,0.2,0c0.2,0.2,0.5,0.8,0.6,1.1h0.1
	c0-0.1,0-0.2,0-0.3c0.1,0.1,0.1,0.3,0.2,0.4l0.1,0.1c-0.1-0.1-0.1-0.3-0.2-0.4c0.4,0.1,0.5,0.8,0.7,1.1c0.3,0.4,0.7,0.6,1,0.9
	c0,0-0.1,0-0.2-0.1c0.1,0.2,0.2,0.2,0.3,0.4c0.1,0,0.1,0,0.2,0c-0.1-0.1-0.1-0.1-0.2-0.2h0.1c0.1,0.1,0.2,0.1,0.3,0.2v0.1
	c-0.1,0-0.2,0-0.2,0.1c0.2,0.2,0.1,0,0.4,0.1c0.5,0.2,1.2,1,1.5,1.4c0.2,0.6,0.5,1.2,0.7,1.8c0.3,0.5,0.9,1.1,1.1,1.6
	c0.1,0,0,0,0.1,0c0,0-0.1,0.2,0,0.4c0.1,0.2,0.4,0.4,0.7,0.5c-0.1,0.2-0.1,0.2-0.1,0.5c0.3,0.4,0.6,0.8,0.7,1.4l0.1,0.1l0,0
	c0-0.1,0-0.2-0.1-0.3l0,0c0.1,0.2,0.2,0.4,0.3,0.6c0,0,0,0,0.1,0c0-0.1-0.1-0.2-0.1-0.3C214.9,119.8,215,119.9,215.2,120L215.2,120
	L215.2,120z M134.7,87c-0.2-0.1-0.5-0.2-0.8-0.2c-0.1,0-0.1,0.1-0.2,0.1c0.1,0.2,0.8,0.4,1.1,0.5l0,0
	C134.8,87.2,134.8,87.2,134.7,87 M155.5,88.2c0.1,0.1,0,0,0.1,0.1l0,0v-0.1C155.6,88.3,155.5,88.2,155.5,88.2 M157.7,90.2l0.1,0.1
	l0,0l0,0C157.8,90.3,157.7,90.3,157.7,90.2 M156.3,91c-0.1,0-0.2,0-0.3,0.1c0,0.3,0,0.1-0.1,0.2c0.6,0,1.1-0.1,1.6-0.1
	C157.1,91.1,156.7,91,156.3,91 M159,91.8c0,0.1,0,0.1,0,0.2l0.1-0.1l0,0C159.1,91.8,159.1,91.8,159,91.8 M150.3,93.2
	C150.2,93.2,150.2,93.2,150.3,93.2c0.9,0.7,1.6,1.2,2.8,1.6h0.1v-0.1C152.5,94,151.4,93.2,150.3,93.2 M160.8,93.8L160.8,93.8
	C160.9,93.9,160.9,94,160.8,93.8C160.9,93.9,160.9,93.8,160.8,93.8"/>
<path class="st1" d="M196.4,101.8c-0.2,0-0.4,0-0.6-0.1c0.1-0.2,0.3-0.5,0.2-0.7c-0.1-0.4-0.8-1.2-1.3-0.7h-0.1
	c-0.2-0.5-0.7-1.2-1.3-1.6c-0.3-0.1-0.5-0.2-0.8-0.3c-0.7-0.7-1-1.2-2-1.2c0.1-0.1,0.2-0.2,0.3-0.2c-0.1-0.1-0.1-0.1-0.2-0.2
	c0.2-0.3,0-0.6,0-0.9c-0.4-0.4-1.1-0.3-1.6-0.2c0-0.2,0.1-0.1-0.1-0.2c0.1-0.2,0.1-0.3,0.3-0.4c0-0.1-0.1-0.2-0.1-0.3
	c-0.4-0.1-0.9,0.1-1.3,0c-0.1,0.1-0.1,0.1,0,0.3c-0.1,0.2,0,0.2,0.1,0.4h-0.1c-0.1,0-0.1,0-0.2,0.1c0.1,0.1,0.2,0.3,0.3,0.4l0,0
	c-0.2-0.1-0.4-0.3-0.6-0.4c-0.1,0.2,0,0.1-0.2,0.3c0.2,0.2,0.7,0.4,0.9,0.4c0,0.1,0.1,0.1,0.1,0.2c-0.1,0-0.1,0.1-0.2,0.1
	c0.1,0.2,0.2,0.2,0.1,0.4c0.1,0,0.3,0,0.4-0.1c0-0.1,0-0.1,0-0.2v-0.1l0,0c0.1,0.5,0.3,0.8,0.4,1.3h0.2v-0.1c0-0.1-0.1-0.1-0.1-0.2
	l0.3,0.2l0,0c0-0.1-0.1-0.3-0.1-0.4c0.1,0.1,0.2,0.2,0.3,0.2c0.1,0.2,0.1,0.4,0,0.6c0.1,0.1,0.3,0.2,0.4,0.3h0.1
	c0-0.1-0.1-0.1-0.1-0.2l0,0c0.1,0.1,0.3,0.1,0.4,0.2v-0.2c0.3,0.1,0.4,0,0.6-0.1c0.3,0.3,0.2,0.9,0.9,0.8c0,0.3,0.1,0.5,0.2,0.7
	c-0.3,0.3-0.7,0.1-1,0c0,0.3,0.1,0.2,0.3,0.4c-0.1,0.1-0.1,0.1-0.2,0.2c0,0,0,0,0.1,0.1c0.1,0,0.2-0.1,0.3-0.1
	c0.1,0.2,0.2,0.3,0.3,0.4c0,0.3-0.3,0.4-0.5,0.4l-0.1,0.1c0.1,0.1,0.3,0.2,0.4,0.4c0.4-0.2,0.8,0.1,1.3,0.2c0.1-0.1,0.2-0.1,0.3-0.2
	c-0.1,0.1-0.1,0.1,0,0.3h-0.8c0,0.4-0.2,0.8-0.6,1.1v0.1c0.2,0,0.2,0,0.5,0.1c0.1-0.2,0-0.3,0.4-0.4c0.2-0.1,0.5,0.1,0.7,0.1
	c0-0.1,0-0.4,0.1-0.5c0,0,1.3,0.1,1.4,0.1h0.1c0-0.1-0.1-0.1-0.1-0.2c0.6,0,1,0,1.5-0.2V102C196.4,101.9,196.4,101.8,196.4,101.8
	 M163.4,98.8c-0.2-0.1-0.2,0.1-0.6,0.2c0-0.1,0-0.1,0-0.2c0.1-0.2,0.2-0.3,0.5-0.4c0,0,0,0,0-0.1l0,0c-0.5,0-0.6,0.1-0.9,0.4
	c0-0.1-0.1-0.1-0.1-0.2c-0.1,0,0,0-0.1,0c0.3-0.3,0.9-0.4,1-0.5l0.1-0.1c-0.2-0.2-0.6-0.1-0.9-0.2c0.1-0.3,0-0.1,0-0.4
	c0.2,0,0.3-0.1,0.5-0.2c-0.3-0.2-0.7-0.5-1.1-0.4c-0.2-0.2,0-0.3-0.3-0.4c-0.1,0.1,0,0.1-0.1,0c0,0.1,0,0.1,0.1,0.2
	c-0.1,0-0.2,0-0.3,0c-0.2,0-0.2,0-0.1-0.2c-0.2,0-0.1,0-0.2,0.1c-0.2-0.1-0.2-0.1-0.4-0.1l0.1-0.1c-0.2-0.1-0.1,0-0.2,0l-0.1-0.1
	v-0.2c0.2,0,0.3,0,0.5,0l0,0c-0.2-0.2-0.5-0.2-0.8-0.4c-0.3,0.1-0.5,0.2-0.8,0.3c0.1-0.4,0.9-0.8,1.3-0.9c0.1-0.1,0.1-0.1,0.2-0.2
	c-0.1-0.1-0.1-0.1-0.3-0.1v-0.1c0.2,0.1,0.4,0.1,0.6,0.1l0.1-0.1v-0.1c-0.2-0.1-0.5-0.1-0.7-0.2c-0.3,0-0.5,0-0.8,0
	c-0.2,0-0.6,0.3-0.9,0.4c-0.5,0.2-0.6,0.8-1.2,0.9c-0.1,0.2-0.1,0.1,0,0.3l0,0c-0.2,0-0.1,0-0.2-0.1c-0.3,0.1-0.4,0.2-0.6,0.4
	c0.1,0.1,0.2,0.2,0.3,0.2c-0.4-0.1-0.8,0.2-1.2,0.2c0,0.1,0.1,0.3,0.1,0.4c0.7,0.2,3.5,0.8,3.8,1c-0.1,0-0.1,0-0.2,0
	c0.3,0.1,0.6,0.2,0.8,0.3c0.1-0.1,0.1-0.1,0.1-0.2c0.2,0.1,0.4,0.2,0.6,0.2c-0.3,0.1-0.7,0.2-1.3,0.2c0,0,0,0.1,0,0.2
	c0.9,0.3,1.6-0.1,2.4-0.3c0.1,0.1,0.1,0.1,0.2,0.2c0,0.3-0.2,0.5-0.4,0.6c0.1,0.2,0,0.1,0.2,0.2c0.2-0.1,0.4-0.1,0.6-0.2
	c-0.1,0.2-0.1,0.2-0.1,0.5c0.2,0.1,0.4,0.1,0.6,0.2c0.3-0.2,0.4-0.5,0.7-0.7C163.4,99,163.4,98.9,163.4,98.8 M187.2,94.9
	c-0.1,0-0.1,0-0.2,0c-0.1,0.1-0.2,0.2-0.3,0.3c0.1,0.2,0.2,0.2,0.2,0.3c0,0,0.1,0,0.1,0.1c0.1-0.1,0.2-0.2,0.3-0.2
	C187.2,95.1,187.2,95,187.2,94.9"/>
<path class="st1" d="M160.4,94.7L160.4,94.7C160.4,94.8,160.5,94.8,160.4,94.7L160.4,94.7z M186.9,95.6c0,0-0.1-0.1-0.2-0.1
	c-0.1,0-0.1,0.1-0.2,0.1c0.1,0.2,0.2,0.3,0.4,0.5h0.1C187,96,187,95.8,186.9,95.6 M160.4,94.9l0.1,0.1h0.1l0,0
	C160.5,94.9,160.4,94.9,160.4,94.9 M197.5,96.3l0.1,0.1l0,0C197.6,96.3,197.7,96.4,197.5,96.3 M187.7,96.1c0.1,0.1,0.1,0.1,0.1,0.2
	c0,0,0,0,0-0.1C187.8,96.2,187.8,96.2,187.7,96.1 M187,96.2L187,96.2c0,0.1,0.1,0.1,0.1,0l0,0H187z M187.8,96.5L187.8,96.5
	L187.8,96.5C187.8,96.6,187.8,96.6,187.8,96.5L187.8,96.5C187.9,96.6,187.9,96.5,187.8,96.5L187.8,96.5z M187.6,96.6L187.6,96.6
	l0.1,0.1C187.7,96.6,187.7,96.7,187.6,96.6 M156.2,95.9c-0.1,0-0.2,0-0.2,0h-0.1V96c0.2,0,0.4,0,0.6,0.1
	C156.4,96,156.3,96,156.2,95.9 M161.8,96.3c0,0.1,0,0.1-0.1,0.2c0.1,0,0.2,0,0.3,0C162,96.3,162,96.4,161.8,96.3 M188.7,97
	c-0.1,0.2-0.1,0.2-0.3,0.3c0.1,0.2,0.1,0.2,0.3,0.3C188.7,97.4,188.8,97.1,188.7,97 M188.4,97C188.3,97,188.3,97,188.4,97L188.4,97
	C188.4,97.1,188.4,97.1,188.4,97C188.4,97.1,188.4,97.1,188.4,97C188.4,97.1,188.4,97,188.4,97 M150.1,96.6c-0.2-0.1-0.1,0-0.1-0.2
	c-0.2-0.2-0.1-0.1,0-0.4h-0.1c-0.2,0.1-0.3,0.1-0.5,0.2c0,0,0,0,0,0.1c0.4,0.4,0.8,0.6,1.5,0.9c0.1,0.1,0.1,0,0.1,0.1
	c0.1,0.1,0.2,0.1,0.3,0.2c0.4-0.1,0.3-0.3,0.9-0.3l0,0v-0.1C151.8,97,150.1,96.6,150.1,96.6 M189.3,97.3L189.3,97.3l-0.1,0.2
	C189.3,97.5,189.3,97.5,189.3,97.3C189.3,97.4,189.3,97.3,189.3,97.3 M189.5,99.2C189.5,99.2,189.5,99.1,189.5,99.2
	c0.2-0.2,0.2-0.3,0.4-0.4v-0.2c-0.3-0.3-0.6-0.3-0.8-0.7c-0.3-0.2-0.6-0.1-0.8,0.1c0-0.1,0-0.1,0.1-0.2c-0.1,0-0.3-0.1-0.4-0.2
	c-0.1,0.1-0.3,0.2-0.6,0.2c0,0.3,0,0.3-0.2,0.5c0.2,0.1,0.3,0.1,0.5,0.1c-0.1,0.2-0.2,0.2-0.2,0.3c-0.4,0-0.8,0-1.2,0
	c0,0.2,0.1,0.1,0.2,0.2l-0.1,0.1c0.2,0.2,0.3,0.1,0.6,0.1c-0.2,0.2-0.2,0.2-0.3,0.3c0.3,0.4,0.6,0.2,1.1,0.3
	c-0.3,0.2-0.2,0.2-0.2,0.5c-0.2,0.2-0.2,0.1,0,0.2c-0.1,0.2-0.1,0.1,0,0.3c-0.1,0-0.2,0-0.3,0c0,0.1-0.1,0.1-0.1,0.2
	c0.2,0,0.3-0.1,0.5-0.1c-0.1,0.1-0.2,0.1-0.3,0.2c0.5,1.2,2.3-0.3,3.1-0.3C190.3,100.4,190.1,99.5,189.5,99.2 M162.3,97.3
	L162.3,97.3C162.3,97.4,162.3,97.4,162.3,97.3C162.4,97.4,162.3,97.3,162.3,97.3 M200.5,98.3c0,0.1,0.1,0.1,0.1,0.2
	c0.1,0,0.2,0.1,0.3,0.1C200.8,98.4,200.8,98.4,200.5,98.3 M145.9,97.4c0,0.1-0.1,0.1-0.1,0.2h0.1c0.1-0.1,0.1,0,0.2-0.2H145.9z
	 M149,97.6c0,0.1,0,0.1,0,0.2l0.1,0.1c0.2,0,0.5-0.1,0.8-0.1C149.6,97.7,149.3,97.6,149,97.6 M190.6,98.6c0,0.1-0.1,0.2-0.1,0.3V99
	c0.1,0,0.1,0,0.2,0v-0.1C190.7,98.8,190.7,98.7,190.6,98.6 M143.2,97.4c0,0.1,0,0.1,0,0.2l0.1-0.1C143.3,97.5,143.3,97.5,143.2,97.4
	 M153.6,97.9L153.6,97.9c-0.1,0-0.1,0.1-0.1,0.1C153.6,97.9,153.6,98,153.6,97.9 M143.5,97.6L143.5,97.6
	C143.5,97.7,143.5,97.6,143.5,97.6L143.5,97.6z M153.4,98c-0.1,0-0.1,0-0.2,0c-0.1,0.1-0.2,0.1-0.3,0.2c0.2,0,0.3,0,0.5,0l0,0
	C153.5,98.1,153.4,98,153.4,98 M158.9,98.2c0,0.1,0.1,0.1,0.1,0.2l0.1-0.1C159,98.3,158.9,98.3,158.9,98.2 M161.6,98.4
	c-0.1,0-0.1,0.1-0.2,0.1v0.1h0.1c0.1,0,0.1-0.1,0.2-0.1v-0.1H161.6z M146.4,98C146.5,98,146.4,98,146.4,98L146.4,98z M158.9,98.4
	C158.8,98.5,158.8,98.5,158.9,98.4c0,0.1,0,0.1,0.1,0.1h0.1C159,98.5,158.9,98.5,158.9,98.4 M159,98.6L159,98.6
	C159.1,98.6,159.1,98.6,159,98.6C159.1,98.6,159.1,98.6,159,98.6 M201.3,99.7c0.1,0,0.2,0.1,0.2,0.1l0,0
	C201.5,99.7,201.5,99.7,201.3,99.7 M198.3,100L198.3,100C198.4,100,198.3,100.1,198.3,100L198.3,100z M197.9,100.2
	C197.9,100.2,197.8,100.3,197.9,100.2C197.9,100.3,197.9,100.3,197.9,100.2L197.9,100.2L197.9,100.2L197.9,100.2 M197.8,100.5
	L197.8,100.5c0,0.1,0,0.1,0.1,0.1C197.8,100.5,197.9,100.6,197.8,100.5 M140.9,99.2L140.9,99.2L140.9,99.2L140.9,99.2z M139.3,99.4
	L139.3,99.4C139.3,99.4,139.3,99.5,139.3,99.4 M140,99.7c-0.1,0-0.1,0-0.2,0.1v0.1c0.2,0,0.3,0,0.4,0.1l0,0
	C140.2,99.8,140.2,99.8,140,99.7 M137.7,99.8L137.7,99.8L137.7,99.8c0,0.1,0.1,0,0.1,0S137.8,99.8,137.7,99.8 M138.8,99.8
	C138.9,99.8,138.8,99.8,138.8,99.8L138.8,99.8z M138.3,99.8L138.3,99.8l0.1,0.1C138.4,99.8,138.4,99.9,138.3,99.8 M140.6,100
	C140.6,100,140.6,100.1,140.6,100c0,0.1,0.1,0.1,0.2,0.2l0,0v-0.1C140.8,100,140.8,100,140.6,100 M93.7,102.9
	c-0.1,0.5-0.3,0.8-0.4,1.2l0,0C93.5,103.8,94,103.4,93.7,102.9 M93,104.5C93.1,104.4,93.1,104.4,93,104.5
	C93,104.4,93,104.4,93,104.5 M131.4,105.1C131.4,105.2,131.4,105.2,131.4,105.1L131.4,105.1C131.4,105.2,131.4,105.2,131.4,105.1
	 M92.3,107.8c0,0.2-0.1,0.4-0.1,0.6v0.1c0,0,0,0,0.1,0c0.1-0.2,0.1-0.4,0.2-0.6C92.3,107.9,92.3,107.8,92.3,107.8 M207,109
	c0,0.1,0.1,0.1,0.1,0.2V109C207.1,109,207.1,109,207,109 M108.2,108.2c0,0.1-0.1,0.1-0.1,0.2C108.2,108.3,108.2,108.3,108.2,108.2
	 M112.1,108.1c-0.1,0.1-0.3,0.1-0.3,0.3c0.3,0,0.4,0,0.7,0l0,0C112.4,108.3,112.2,108.2,112.1,108.1 M107,108.7L107,108.7
	C107,108.8,107.1,108.8,107,108.7C107.1,108.7,107.1,108.7,107,108.7 M209,111.6L209,111.6l0.1,0.1
	C209.1,111.7,209.1,111.7,209,111.6 M205.8,111.5c0,0.1,0.1,0.2,0.1,0.3c-0.1,0-0.2,0.1-0.2,0.2c0,0.5,0.4,1.2,0.7,1.4l0.1,0.1l0,0
	C206.5,112.8,206.2,111.7,205.8,111.5 M206.4,111.7C206.3,111.7,206.3,111.7,206.4,111.7l-0.1,0.2c0.1,0,0.1,0,0.2,0
	C206.4,111.7,206.5,111.8,206.4,111.7 M90.2,114.2L90.2,114.2c0,0.1,0,0.2,0.1,0.2l0,0C90.3,114.2,90.3,114.2,90.2,114.2
	 M207.8,116.3c-0.1-1-0.6-2-1.1-2.7c0,0-0.1,0-0.1-0.1c0,0.1-0.1,0.3-0.1,0.4c-0.2,0.1-0.1,0.1-0.3,0c0,0.5,0.5,0.9,0.7,1.3
	c0.2,0.3,0,0.7,0.1,0.9c0.2,0.1,0.2,0.2,0.5,0.3c0-0.1,0-0.2,0-0.3C207.6,116.2,207.6,116.3,207.8,116.3L207.8,116.3z M213.4,114.6
	v0.2l0.1,0.1C213.4,114.7,213.4,114.7,213.4,114.6 M213.7,114.9c0,0.1,0.1,0.1,0.1,0.2h0.1C213.8,115,213.9,115,213.7,114.9
	 M213.4,115.4c0,0.1,0.1,0.1,0.1,0.2C213.4,115.5,213.4,115.5,213.4,115.4c0,0.2,0,0.2,0.1,0.3l0.1-0.1
	C213.6,115.5,213.5,115.4,213.4,115.4 M213.9,115.6L213.9,115.6c0.1,0.2,0.1,0.2,0.2,0.2v-0.2C214,115.6,213.9,115.6,213.9,115.6
	 M212.4,116c0.1,0.1,0.1,0.1,0.2,0.2C212.6,116.1,212.5,116.1,212.4,116 M214.3,116.9L214.3,116.9c0.1,0.1,0.1,0.2,0.2,0.2
	C214.4,117,214.4,116.9,214.3,116.9 M193.8,116.2c0,0.1,0,0.1,0,0.2C193.9,116.4,193.9,116.3,193.8,116.2
	C193.9,116.2,193.9,116.2,193.8,116.2 M213.3,117.5v0.3c0.1,0.1,0.1,0.1,0.1,0.1h0.1v-0.1C213.4,117.8,213.4,117.6,213.3,117.5
	 M214,117.7c-0.1,0-0.1,0-0.2-0.1c0.1,0.1,0.3,0.2,0.4,0.4c0,0,0.1,0,0.1-0.1C214.2,117.8,214.1,117.8,214,117.7 M213.5,118.2
	c0,0.1,0,0.1,0,0.2s0.1,0.1,0.2,0.1v-0.2C213.7,118.3,213.6,118.2,213.5,118.2 M100.2,118.2v0.3c0.1,0,0.1,0,0.2,0l0,0
	C100.3,118.4,100.3,118.3,100.2,118.2 M215.1,120.1c0,0.1,0.1,0.2,0.1,0.3c0,0,0-0.1,0.1-0.1C215.2,120.2,215.2,120.2,215.1,120.1
	 M154.6,191.2c0,0.1,0,0.1,0,0.2c0.1-0.1,0.1-0.1,0.2-0.2H154.6z M153.3,191.3l-0.1,0.1l0.1,0.1h0.2l0,0
	C153.4,191.4,153.4,191.4,153.3,191.3 M153.6,191.4L153.6,191.4C153.7,191.4,153.7,191.4,153.6,191.4L153.6,191.4z M146.9,195.4v0.1
	C147,195.5,146.9,195.5,146.9,195.4L146.9,195.4z M146.9,195.6v0.1C146.9,195.7,146.9,195.7,146.9,195.6
	C146.9,195.7,146.9,195.6,146.9,195.6 M143.8,198c-0.2,0-0.4,0.1-0.6,0.1c-0.2,0.5-0.7,0.8-1.2,1.1l0,0c0.1,0,0.1,0.1,0.2,0.1
	c0.4-0.1,0.7-0.2,0.9-0.4c0-0.1,0-0.1,0-0.2c0.3,0,0.4-0.2,0.6-0.3L143.8,198L143.8,198z M120.8,199.6
	C120.9,199.6,120.8,199.6,120.8,199.6L120.8,199.6z M120.6,200.8C120.6,200.9,120.6,200.9,120.6,200.8c0,0.1,0,0.1,0,0.1
	C120.7,201,120.7,200.9,120.6,200.8C120.7,200.9,120.7,200.9,120.6,200.8 M131.3,203.8c0,0.2,0,0.3,0.2,0.3l0,0
	C131.5,204,131.5,203.9,131.3,203.8 M122.1,204.9c0.1,0.1,0,0,0.1,0.1l0,0l0,0h-0.1V204.9z M121.3,205.9c-0.1-0.1-0.1-0.1-0.3-0.1
	l0.1,0.1H121.3C121.4,205.9,121.3,205.9,121.3,205.9 M121.4,206.7v0.1h0.1L121.4,206.7 M121.8,207.3L121.8,207.3L121.8,207.3
	L121.8,207.3 M125.6,213.6C125.6,213.6,125.6,213.7,125.6,213.6c0,0.1,0,0.1,0.1,0.1h0.1C125.7,213.7,125.7,213.7,125.6,213.6
	 M126.4,214L126.4,214c-0.2,0.1-0.3,0.1-0.3,0.2C126.3,214.2,126.4,214.2,126.4,214L126.4,214z M127.4,214c-0.1,0-0.1,0-0.2,0h-0.1
	h0.1l0.1,0.1C127.3,214.2,127.4,214.1,127.4,214C127.4,214.1,127.4,214,127.4,214 M127.8,214.7L127.8,214.7
	c-0.3-0.1-0.5-0.1-0.7-0.2c0-0.3,0-0.4-0.3-0.5c0.1,0.3,0.2,0.7,0.1,0.8c0.1,0,0.1,0,0.1,0c0-0.1,0.1-0.2,0.1-0.3h0.1
	c0.1,0.2,0.2,0.4,0.4,0.5c-0.1-0.1-0.1-0.2-0.2-0.3l0,0C127.5,214.7,127.6,214.7,127.8,214.7 M127.1,215.3L127.1,215.3
	C127.1,215.4,127.2,215.3,127.1,215.3L127.1,215.3z M129.7,216.2c0,0.2,0,0.1,0.1,0.1C129.8,216.3,129.8,216.2,129.7,216.2
	 M130.9,216.2c0.1,0.1,0.3,0.1,0.5,0.2v-0.1C131.3,216.3,131.1,216.3,130.9,216.2 M129.4,216.3c0.1,0.2,0.2,0.3,0.5,0.3
	C129.7,216.5,129.6,216.4,129.4,216.3"/>
<path class="st1" d="M147.6,73.2c-31.6,0-58.7,19.2-70.4,46.5c10.7-19.1,33.4-42.1,70.3-42c33.3,0,58.2,20.1,70.4,42.1
	C206.4,92.4,179.2,73.2,147.6,73.2 M220.5,172.9c-9.9,30.3-37.8,53.9-73.1,53.9c-37.5,0-62.6-23.3-72.7-53.2
	c10.5,27.9,39.1,47.9,72.8,47.9C181.4,221.5,210.2,201.1,220.5,172.9"/>
<g class="st4">
	<path class="st5" d="M208.1,83.4c0-12.1-13.9-22.1-32.4-23.3v63.2C199.1,109.7,208.1,96.1,208.1,83.4z"/>
	<path class="st5" d="M205.7,128.7L205.7,128.7c-6.4,0-12.1,2.4-30,15.1v68.4c30.9-34.5,39.6-58.1,39.6-70.2
		C215.3,133.6,211.4,128.7,205.7,128.7z"/>
	<path class="st5" d="M262.9,56.5L262.9,56.5c-0.3-1.2-0.6-1.7-1.2-1.8l-21.8-5.8l-3-12.4c-0.2-0.6-0.3-1.1-0.9-1.2l-22.4-6
		l-2.7-11.8c0-0.7-0.5-1.3-1.2-1.5L151.4,5.1c-1-0.2-1.9-0.2-2.9,0L90.4,15.9c-0.7,0.2-1.2,0.8-1.2,1.5l-2.7,11.8l-22.4,6
		c-0.6,0.2-0.8,0.6-0.9,1.2l-3,12.4l-21.8,5.8c-0.6,0.2-0.9,0.6-1.2,1.8c-1.8,9.7-2.8,19.5-2.7,29.4c0,87.1,45.4,162.8,113.2,207.9
		c0.7,0.6,1.5,1,2.4,1.2c0.9-0.2,1.7-0.6,2.4-1.2c67.7-45,113.1-120.7,113.1-207.8C265.6,76,264.7,66.2,262.9,56.5z M140.3,254.1
		c-16.6-19.1-27.8-42.3-35.4-67.8l-11.5,7.2c-3,2.1-5.4,1.2-7.3-2.1c-15.4-27.2-25.4-72-26.3-103.5c0-1.4,0.5-2.8,1.5-3.9
		c4.1-4.9,8.5-9.6,13.3-13.9c0.9-0.9,1.8-0.3,1.8,1.2c0,38.7,6.7,74.7,17.3,98.3c0.9,1.8,1.8,1.8,3,0.9l3.3-2.1
		c-6.3-28.1-10-65.6-9.1-108.9c0-1.5,0.3-2.1,1.2-2.7c4.6-2.9,9.5-5.4,14.5-7.6c1.5-0.6,1.8-0.3,1.8,0.9
		c-0.9,62.9,4.2,106.5,15.4,141.3c0.3,0.9,1.2,0.6,1.2-0.3c-0.6-12.7-0.6-23.9-0.6-37.5L123.8,45c0-1.2,0.3-1.8,1.5-2.1
		c5-1.2,10-2.1,15.1-2.7c0.4-0.1,0.9,0.3,0.9,0.7c0,0.1,0,0.1,0,0.2l0.1,212.8C141.5,254.4,140.9,254.7,140.3,254.1z M159.7,254
		L159.7,254c-0.6,0.7-1.2,0.4-1.2-0.2V41c0-0.1,0-0.2,0-0.3c0.1-0.4,0.5-0.7,0.9-0.7l0,0c40.5,2.7,66.5,19.7,66.5,44.2
		c0,10.2-3.8,20-10.6,27.5c13.3,3.6,18.5,13.6,18.5,26.9C233.8,162.4,216.6,201.4,159.7,254z"/>
</g>
<path class="st1" d="M5,231h290V69H5V231z M19.2,83.2h261.6v133.5H19.2V83.2z"/>
<path class="st1" d="M161.8,116.6c0,0-11.3,42.5-12.2,47.1l-12.3-47.1H114v65.3h15.2v-48l13.3,48h14.1c0,0,13-46.5,13.3-47.9v47.9
	h15.3v-65.3L161.8,116.6L161.8,116.6z M105.9,171.5v-34c0-6.9-0.1-13-7.7-17.6c-5.6-3.3-13.1-4.1-19.3-4.1c-4.1,0-19.4,0-25.6,11.2
	c-2,3.6-2.3,6.3-2.5,9.4l0,0l0,0l0,0h15.8c0-1.4,0.2-2.9,1.5-4.5c1.5-2.1,5-4.1,11.4-4.1c12.7,0,10.8,12.8,10.8,12.8
	s-6.3,0.1-19.8,1.7c-6.2,0.8-16.1,3.2-20.7,12.5c-1.4,2.7-2.1,5.7-2.1,8.7c0,11,8.7,20,23.2,20c8.9,0,15.7-3.7,19-6.6
	c0,0.9,0.3,3.5,0.4,5H106C105.9,171.5,105.9,176.4,105.9,171.5 M90.5,157c0,1.9,0,3.8-0.9,5.8c-1.7,3.9-7.2,7.5-15,7.5
	c-6.2,0-10.4-2.6-10.4-7.6c0-6.8,6.4-8.3,11.9-9c6.9-0.9,14.4-1.1,14.4-1.1V157L90.5,157z M252.9,156.5H238
	c-0.4,1.8-3.6,13.6-15.2,13.6c-0.2,0-2,0-2.2,0c-8.6-0.3-15.6-7.4-15.6-21.4c0-10.8,5.4-20.5,15.7-20.7h2.1
	c10.7,0,14.4,11.1,14.6,11.8h14.9c-2.9-13.9-13.8-25.3-30.3-25.3c-18.5,0-31.6,15.2-31.6,34.6c0,22.1,14,34.7,31.3,34.7
	C240.9,183.8,250.9,169.1,252.9,156.5"/>
<g>
	<path class="st6" d="M159,65.3c-7.7-1.2-14.2,2.1-19.8,6.9c-5.7,5.4-9.3,12.6-7.7,20.6c1.2,5.5,7,9.6,12,10.6
		c9.3,1.2,17.8-2.7,23.8-10.6c3.7-5.1,5.8-13.1,2.6-19.2C167.5,69.3,163.6,66.1,159,65.3"/>
	<path class="st6" d="M235.2,204.9l-133,14.3l166.5,18.5v-21.5L235.2,204.9z"/>
	<path class="st6" d="M51.2,225.8c-4.9,3.2-8.4,8.8-7.2,15c0.8,4.5,4.8,8.1,8.7,9.9c2.1,1,3.2,1.6,5.9,2.7c1.5,1-1.6,0.9-2.7,1.3
		L5,262.1v8.3h290v-22.6l-219.9-25C67.5,221.4,57.3,221.8,51.2,225.8"/>
	<path class="st6" d="M222.8,77.5c1.3-1.9,2.8-2.5,4.7-2.5c1.8-0.1,4.3,0.8,6.4,1.6l11.6,5.1l-2.9-12.8l-19.8-9.5L222.8,77.5
		L222.8,77.5z"/>
	<path class="st6" d="M107.5,204c3.3-0.4,4.9-4.5,4.9-8.6l0-13.2l-9.7-3.6l0,18.2C102.7,200.8,104.2,204.4,107.5,204"/>
	<path class="st6" d="M131.3,182l0,18.9l4.2-0.6c4.6-0.6,7.4-5.3,7.4-10.6c0-5.6-2.6-9.2-7.4-8.4L131.3,182z"/>
	<path class="st6" d="M191.4,164.3C191.4,164.3,191.4,164.3,191.4,164.3L191.4,164.3L191.4,164.3z"/>
	<path class="st6" d="M184.9,173.4c-5.1,0.8-8.3,5.4-8.3,11.5c0,6.1,3.2,9.8,8.3,9.1c5.1-0.7,8.5-5.3,8.5-11.6
		C193.3,176.2,190,172.5,184.9,173.4"/>
	<path class="st6" d="M219.4,129l4.2-8l-12.2-4.6l0,0L219.4,129z"/>
	<path class="st6" d="M275.9,200.4c-5.6,1.2-9.2-1.8-10.6-6.2c-0.4-1.3,0.1-1.7,1.6-2c4.3-0.7,8.7-1.6,13-2.5
		c2.1-0.4,1.9,0.3,1.9,1.3C282.7,195,279.9,199.3,275.9,200.4 M35.2,202.7c-1.3,3.1-4.4,5.3-7.6,5.3c-3.3,0.3-6.3-0.9-7.9-4.8
		c-1.1-2.9-1.5-7.2,0.4-6.7c5.2,0.6,9.9,1.8,15,3C36.4,199.9,35.6,201.6,35.2,202.7 M196.5,77.7l6.6-1.5v7l5.8-1.5v6.4l-5.8,1.3
		v16.2l-6.6,1.5V77.7z M260,29.6l14.8,155c0.2,1.5,0.1,3.6-1.9,4.1c-1.6,0.6-2.6-0.5-3.1-1.5l-4.4-19.1l-29.7-11.8l-11.7,2
		c3,0.4,5.7,1.5,8,3.5l-4.3,7.5c-2.7-2.3-6.6-2.1-9.4-1.7c-2.7,0.4-3.8,2-3.8,3.7c0,2.1,1.9,2.5,5.5,2.8c5.3,0.6,12.5,1.1,12.5,10.2
		c0,3.4-0.8,6.4-2.4,8.9l-23.5,2.9c-0.4-0.4-0.9-0.8-1.3-1.2l3.9-7.4c2.2,2.5,6.1,3.4,10.4,2.8c2.8-0.4,4.6-2.1,4.6-4
		c0-2.3-2.1-2.9-5.5-3.3c-5.2-0.6-12.2-0.9-12.2-10.1c0-1.2,0.2-2.4,0.4-3.6l-15.3-4.6c6.1,1.9,10.2,8,10.2,16.8
		c0,6.4-2.2,12-5.7,16l-22.4,2.8c-3.3-3-5.3-7.9-5.3-13.9c0-5.3,1.6-10.1,4.2-13.9l-9.8-3.7l-0.1,0l-0.1,32.9l-7.1,0.9l0-24.6
		l-14.2-4.3c5,1.7,8.3,7.1,8.3,15.4c0,6.2-1.9,11.3-4.9,14.8l-20.1,2.5l0.1-28.1l-5.9-2.2l-0.1,0l0,19.5c0,4.5-0.9,8.7-2.9,11.8
		l-16.6,2.1c-1.9-2.6-2.7-6.5-2.7-10.7l0-16.4l-4.7-1.8h0l0.8,7.8l-6.4,1l0,21.7l-5.8,0.7l0-21.5l-6.2,1l0.4-3.9l-7.2-2.2l0,0
		c1.6,0.5,3.1,1.4,4.4,2.9l-2.8,6c-1.8-2-4.4-1.9-6.2-1.6c-1.8,0.3-2.5,1.5-2.5,2.9c0,1.7,1.3,2.1,3.6,2.4c3.5,0.6,8.3,1.2,8.2,8.6
		c0,2.6-0.5,4.8-1.4,6.7l-16.1,2c-0.2-0.2-0.4-0.4-0.5-0.7l2.6-6c1.5,2.1,4,2.9,6.9,2.5c1.9-0.2,3-1.6,3-3.2c0-1.8-1.4-2.4-3.6-2.8
		c-3.5-0.6-8.1-1-8.1-8.5c0-2.6,0.7-5,1.9-7.1l-5.2-2l-0.1-6.7l184.1-32.6l27.6,11l-9.4-40.9l-17.4-6.8l-13.2,25.5l0,10l-7.8,1.4
		l0-9.9l-9.6-15.1l-8.7-2.6l0,0c1.2,0.3,2.3,0.9,3.1,1.7c0.9,0.8,1.5,1.9,1.9,3.2c0.4,1.3,0.7,3.4,0.7,4.9c0,2.8-0.6,5.9-1.8,7.8
		c-1,1.7-2.5,3.5-4.4,4.7l5.3,7.8L193,152l-4.8-7.2l0,8l-7.4,1.3l0-28.4l-4.9-1.8l0,20.9c0,4.2-0.5,7.8-2.2,10.7l-19.3,3.4
		c-1.5-2.2-2-5.5-2-9.5l0-18.3l-3.8-1.4l0.6,7.7l-7.3,1.5l0,22.2l-6.6,1.2l0-22.1l-7.2,1.5l0.4-5.6l-3.5-1.3l-0.1,29.3l-8.3,1.5
		l-11.2-12.7l0,14.7l-6.3,1.1l0-25.7l-5-1.9l1.2,7l-13.2,2.7l0,5.4l10.8-2.1l0,7.2l-10.8,2.1l0,5.6l13.4-2.5l-0.5,3L76,172.9l0-23.5
		l-7.1-2.1c1.8,0.6,3.2,1.6,4.3,2.7l-2.9,6.4c-1.6-1.8-3.8-2-5.7-1.6c-3.5,0.7-6.1,4.6-6.1,9.5c0,4.9,2.7,7.6,6.3,7
		c2.1-0.4,4.2-2,5.5-3.8l2.9,5.3c-0.2,0.3-0.4,0.6-0.7,0.9l-16.3,2.9c-2.2-2.4-3.6-6.3-3.6-11.1c0-5.2,1.5-9.8,3.9-13.1l-5.2-2v-6.2
		l186.1-42l14.1,5.9l-5.2-22.2l-12.8-5.4v18.4l-6.6,1.3V87.2c-0.1-2.2,0.9-5.4-1.6-4.8c-1,0-2.8,1.3-3,2.4v16.3l-7.4,1.6V73.5
		l-29.8-12.9l-2-0.4c2.6,4,4.3,8.5,5.2,13.3c1.8,17-6.8,30.8-20.3,40.3l-25.6,6.2c-8.5,0.8-16.6-2.4-22.4-9
		c-6.8-8.3-7.3-21.1-4.1-31.3l-5.7-2.8c8.2,20.6-18.1,36.1-20.7,43.4l22.1-4.8V127l-54.3,12.8v-7.5l28.9-33c4.3-4.8,9.7-8.9,8-13.8
		c-0.6-1.7-2.4-2.5-3.8-3c-4.5-0.9-8.2,1-11.4,3.8c-2.4,2.4-3.5,5.6-3.6,7.2l-17.6,4c0.6-4.6,1.4-7.9,3-11.6
		c4.9-10.5,15.5-18.5,26.3-20c11.9-2,19.9,6,30.3,9.6c4.7-8.4,12.6-17.2,20.9-21.7c10.9-6.7,26.8-6.4,38.3-1.5l35.5,15.3l3.1,1.1
		V58.4l7.1-3.2l19.1,9.3l-7.9-34.6H62.1L31.8,192.1c-0.5,1.6-2.4,2.4-3.9,2c-1.5-0.6-2.1-1.5-2.1-3.6l7.1-160.7H5v227.2l14.3-2.1
		v-36.7c0.1-2.8,2.9-4,6-4c3.8,0,6.5,1.5,6.5,3.6v35.2l13-1.9c-4.6-4.7-7.4-11.2-5.8-18.1c1.7-7.4,9.2-13.4,16.1-14.6l47.7-5.8
		L232,197.4l5.3-0.3c10.3,3.5,19.5,7.6,30,10.9c2,1,1-1.5,1.4-2.3c0.5-1.3,1.8-1.6,2.8-2.1c3.4-1.2,8.4-0.7,10.6,2.6l0.1,32.9
		l12.7,2V29.6L260,29.6z"/>
	<path class="st6" d="M118.3,156l0-11.7l-14-5.3l-0.1,0L118.3,156z"/>
	<path class="st6" d="M194.2,135.1c0.6-0.7,1.2-1.9,1.2-3.3c0-1.4-0.4-2.1-1-2.6c-0.8-0.7-1.6-0.6-4-0.1l-2.2,0.4l0,7.7l2.2-0.4
		C192.8,136.2,193.5,136,194.2,135.1"/>
	<path class="st6" d="M164,153.2c4.1-0.8,4.6-3.8,4.6-8l0-14.3l-9.3-3.5l0,19.6C159.2,151.2,159.9,154,164,153.2"/>
	<path class="st6" d="M68.6,147.1L68.6,147.1C68.6,147.1,68.6,147.1,68.6,147.1"/>
</g>
</svg>
